<svg width="388" height="388" viewBox="0 0 388 388" fill="none" xmlns="http://www.w3.org/2000/svg">
<path d="M226.333 307.167C287.298 307.167 317.788 307.167 336.719 288.219C355.667 269.288 355.667 238.798 355.667 177.833C355.667 116.869 355.667 86.3785 336.719 67.4473C317.788 48.5 287.298 48.5 226.333 48.5H161.667C100.702 48.5 70.2118 48.5 51.2807 67.4473C32.3333 86.3785 32.3333 116.869 32.3333 177.833C32.3333 238.798 32.3333 269.288 51.2807 288.219C61.8375 298.792 75.9833 303.465 97 305.518" stroke="#2CAEE2" stroke-width="2" stroke-linecap="round" stroke-linejoin="round"/>
<path d="M226.333 307.167C206.351 307.167 184.332 315.25 164.237 325.678C131.936 342.442 115.786 350.833 107.832 345.482C99.8776 340.147 101.381 323.576 104.404 290.45L105.083 282.917" stroke="#2CAEE2" stroke-width="2" stroke-linecap="round"/>
<path d="M170.352 133.361C165.454 103.746 212.973 82.8395 229.672 119.651C247.087 158.041 190.488 172.848 190.488 201.915C190.488 225.168 190.488 227.325 190.488 225.497" stroke="#2CAEE2" stroke-width="2"/>
<circle cx="192" cy="248" r="6" stroke="#2CAEE2" stroke-width="2"/>
</svg>
