<svg width="109" height="50" viewBox="0 0 109 50" fill="none" xmlns="http://www.w3.org/2000/svg">
<path d="M18.3334 23.3332C16.1232 23.3332 14.0036 22.4553 12.4408 20.8925C10.878 19.3297 10 17.2101 10 14.9999V8.33325C10 7.89122 10.1756 7.4673 10.4882 7.15474C10.8007 6.84218 11.2247 6.66658 11.6667 6.66658H13.3334C13.7754 6.66658 14.1993 6.49099 14.5119 6.17843C14.8244 5.86587 15 5.44195 15 4.99992C15 4.55789 14.8244 4.13397 14.5119 3.82141C14.1993 3.50885 13.7754 3.33325 13.3334 3.33325H11.6667C10.3406 3.33325 9.06883 3.86004 8.13115 4.79772C7.19347 5.7354 6.66669 7.00717 6.66669 8.33325V14.9999C6.66883 16.8828 7.12797 18.737 8.00469 20.4034C8.8814 22.0697 10.1495 23.4983 11.7 24.5666C13.1897 25.88 14.3979 27.4816 15.2515 29.2748C16.1051 31.068 16.5865 33.0155 16.6667 34.9999C16.6667 38.0941 17.8958 41.0616 20.0838 43.2495C22.2717 45.4374 25.2392 46.6666 28.3333 46.6666C31.4275 46.6666 34.395 45.4374 36.5829 43.2495C38.7709 41.0616 40 38.0941 40 34.9999V33.0999C41.5711 32.6943 42.9403 31.7295 43.851 30.3866C44.7617 29.0436 45.1513 27.4146 44.9469 25.8049C44.7424 24.1952 43.9579 22.7154 42.7404 21.6427C41.5229 20.5701 39.956 19.9783 38.3333 19.9783C36.7107 19.9783 35.1438 20.5701 33.9263 21.6427C32.7088 22.7154 31.9243 24.1952 31.7198 25.8049C31.5154 27.4146 31.905 29.0436 32.8157 30.3866C33.7264 31.7295 35.0956 32.6943 36.6667 33.0999V34.9999C36.6667 37.21 35.7887 39.3297 34.2259 40.8925C32.6631 42.4553 30.5435 43.3332 28.3333 43.3332C26.1232 43.3332 24.0036 42.4553 22.4408 40.8925C20.878 39.3297 20 37.21 20 34.9999C20.0844 33.0131 20.571 31.064 21.4304 29.2707C22.2899 27.4773 23.5042 25.877 25 24.5666C26.5444 23.4946 27.806 22.0644 28.6768 20.3983C29.5476 18.7322 30.0016 16.8799 30 14.9999V8.33325C30 7.00717 29.4732 5.7354 28.5356 4.79772C27.5979 3.86004 26.3261 3.33325 25 3.33325H23.3334C22.8913 3.33325 22.4674 3.50885 22.1548 3.82141C21.8423 4.13397 21.6667 4.55789 21.6667 4.99992C21.6667 5.44195 21.8423 5.86587 22.1548 6.17843C22.4674 6.49099 22.8913 6.66658 23.3334 6.66658H25C25.442 6.66658 25.866 6.84218 26.1785 7.15474C26.4911 7.4673 26.6667 7.89122 26.6667 8.33325V14.9999C26.6667 16.0943 26.4511 17.1779 26.0323 18.1889C25.6136 19.2 24.9997 20.1187 24.2259 20.8925C23.4521 21.6663 22.5334 22.2801 21.5224 22.6989C20.5113 23.1177 19.4277 23.3332 18.3334 23.3332ZM38.3333 29.9999C37.4493 29.9999 36.6014 29.6487 35.9763 29.0236C35.3512 28.3985 35 27.5506 35 26.6666C35 25.7825 35.3512 24.9347 35.9763 24.3096C36.6014 23.6844 37.4493 23.3332 38.3333 23.3332C39.2174 23.3332 40.0653 23.6844 40.6904 24.3096C41.3155 24.9347 41.6667 25.7825 41.6667 26.6666C41.6667 27.5506 41.3155 28.3985 40.6904 29.0236C40.0653 29.6487 39.2174 29.9999 38.3333 29.9999Z" fill="#2CAEE2"/>
<path d="M76.5508 16.6777H68.7109V38H63.4375V16.6777H55.7031V12.4062H76.5508V16.6777ZM86.4648 12.4062L93.0391 30.9688L99.5781 12.4062H106.504V38H101.213V31.0039L101.74 18.9277L94.832 38H91.2109L84.3203 18.9453L84.8477 31.0039V38H79.5742V12.4062H86.4648Z" fill="#2CAEE2"/>
</svg>
