<svg width="120" height="40" viewBox="0 0 120 40" fill="none" xmlns="http://www.w3.org/2000/svg">
<g clip-path="url(#clip0_2_292)">
<path d="M110.1 0H9.5C9.2 0 8.8 0 8.4 0C8.1 0 7.8 0 7.5 0C6.8 0 6.2 0.1 5.5 0.2C4.9 0.3 4.2 0.5 3.6 0.8C3 1.1 2.5 1.5 2 2C1.5 2.5 1.1 3 0.8 3.6C0.5 4.2 0.3 4.9 0.2 5.5C0.1 6.2 0 6.9 0 7.5C0 7.8 0 8.1 0 8.4V31.5C0 31.8 0 32.1 0 32.4C0 33.1 0.1 33.7 0.2 34.4C0.3 35.1 0.5 35.7 0.8 36.3C1.1 37 1.5 37.5 2 38C2.5 38.5 3 38.9 3.6 39.2C4.2 39.5 4.8 39.7 5.5 39.8C6.2 39.9 6.8 40 7.5 40C7.8 40 8.1 40 8.4 40C8.8 40 9.1 40 9.5 40H110.1C110.5 40 110.8 40 111.2 40C111.5 40 111.8 40 112.1 40C112.8 40 113.4 39.9 114.1 39.8C114.8 39.7 115.4 39.5 116 39.2C116.6 38.9 117.1 38.5 117.6 38C118.1 37.5 118.5 37 118.8 36.4C119.1 35.8 119.3 35.2 119.4 34.5C119.5 33.8 119.6 33.2 119.6 32.5C119.6 32.2 119.6 31.9 119.6 31.6C119.6 31.2 119.6 30.9 119.6 30.5V9.5C119.6 9.1 119.6 8.8 119.6 8.4C119.6 8.1 119.6 7.8 119.6 7.5C119.6 6.8 119.5 6.2 119.4 5.5C119.3 4.8 119.1 4.2 118.8 3.6C118.2 2.4 117.2 1.4 116 0.8C115.4 0.5 114.8 0.3 114.1 0.2C113.4 0.1 112.8 0 112.1 0C111.8 0 111.5 0 111.2 0C110.9 0 110.5 0 110.1 0Z" fill="#A6A6A6"/>
<path d="M8.39999 39.0999C8.09999 39.0999 7.79999 39.0999 7.49999 39.0999C6.89999 39.0999 6.19999 38.9999 5.59999 38.8999C4.99999 38.7999 4.49999 38.5999 3.89999 38.3999C3.39999 38.0999 2.89999 37.7999 2.49999 37.3999C2.09999 36.9999 1.69999 36.4999 1.49999 35.9999C1.19999 35.4999 1.09999 34.8999 0.999988 34.2999C0.899988 33.6999 0.799988 33.0999 0.799988 32.3999C0.799988 32.1999 0.799988 31.4999 0.799988 31.4999V8.3999C0.799988 8.3999 0.799988 7.6999 0.799988 7.4999C0.799988 6.8999 0.899988 6.1999 0.999988 5.5999C1.09999 5.0999 1.29999 4.4999 1.59999 3.9999C1.89999 3.4999 2.19999 2.9999 2.59999 2.5999C2.99999 2.1999 3.49999 1.8999 3.99999 1.5999C4.49999 1.2999 5.09999 1.1999 5.69999 1.0999C6.29999 0.999902 6.89999 0.899902 7.59999 0.899902H8.49999H111.3H112.2C112.8 0.899902 113.4 0.999902 114.1 1.0999C114.7 1.1999 115.2 1.3999 115.8 1.5999C116.8 2.0999 117.7 2.9999 118.2 3.9999C118.5 4.4999 118.6 5.0999 118.7 5.5999C118.8 6.1999 118.9 6.8999 118.9 7.4999C118.9 7.7999 118.9 8.0999 118.9 8.3999C118.9 8.7999 118.9 9.0999 118.9 9.4999V30.3999C118.9 30.7999 118.9 31.0999 118.9 31.4999C118.9 31.7999 118.9 32.0999 118.9 32.3999C118.9 32.9999 118.8 33.5999 118.7 34.2999C118.6 34.8999 118.4 35.3999 118.2 35.9999C117.9 36.4999 117.6 36.9999 117.2 37.3999C116.8 37.7999 116.3 38.1999 115.8 38.3999C115.3 38.6999 114.7 38.8999 114.1 38.8999C113.5 38.9999 112.9 39.0999 112.2 39.0999C111.9 39.0999 111.6 39.0999 111.3 39.0999H110.2H8.39999Z" fill="black"/>
<path d="M60.6 21.6998C58.6 21.6998 56.9 23.1998 56.9 25.3998C56.9 27.4998 58.6 29.0998 60.6 29.0998C62.6 29.0998 64.3 27.4998 64.3 25.3998C64.3 23.2998 62.6 21.6998 60.6 21.6998ZM60.6 27.5998C59.5 27.5998 58.5 26.6998 58.5 25.3998C58.5 24.0998 59.5 23.1998 60.6 23.1998C61.7 23.1998 62.7 24.0998 62.7 25.3998C62.7 26.6998 61.7 27.5998 60.6 27.5998ZM52.5 21.6998C50.5 21.6998 48.8 23.1998 48.8 25.3998C48.8 27.4998 50.5 29.0998 52.5 29.0998C54.5 29.0998 56.2 27.4998 56.2 25.3998C56.2 23.2998 54.5 21.6998 52.5 21.6998ZM52.5 27.5998C51.4 27.5998 50.4 26.6998 50.4 25.3998C50.4 24.0998 51.4 23.1998 52.5 23.1998C53.6 23.1998 54.6 24.0998 54.6 25.3998C54.6 26.6998 53.6 27.5998 52.5 27.5998ZM42.9 22.8998V24.4998H46.7C46.6 25.3998 46.3 25.9998 45.8 26.4998C45.3 26.9998 44.4 27.5998 42.9 27.5998C40.6 27.5998 38.8 25.7998 38.8 23.4998C38.8 21.1998 40.6 19.3998 42.9 19.3998C44.2 19.3998 45.1 19.8998 45.7 20.4998L46.8 19.3998C45.9 18.4998 44.6 17.7998 42.9 17.7998C39.7 17.7998 37.1 20.2998 37.1 23.4998C37.1 26.6998 39.8 29.1998 42.9 29.1998C44.6 29.1998 45.9 28.5998 46.9 27.5998C47.9 26.5998 48.3 25.0998 48.3 23.9998C48.3 23.5998 48.3 23.2998 48.2 22.9998H42.9V22.8998ZM82.3 24.0998C82 23.2998 81.1 21.7998 79.1 21.7998C77.2 21.7998 75.6 23.2998 75.6 25.4998C75.6 27.4998 77.2 29.1998 79.3 29.1998C81 29.1998 82 28.1998 82.4 27.5998L81.1 26.7998C80.7 27.3998 80.1 27.7998 79.3 27.7998C78.5 27.7998 77.9 27.3998 77.5 26.6998L82.5 24.6998L82.3 24.0998ZM77.2 25.2998C77.2 23.8998 78.3 23.1998 79.1 23.1998C79.7 23.1998 80.3 23.4998 80.5 23.9998L77.2 25.2998ZM73.2 28.7998H74.8V18.0998H73.2V28.7998ZM70.5 22.5998C70.1 22.1998 69.4 21.7998 68.5 21.7998C66.6 21.7998 65 23.3998 65 25.4998C65 27.5998 66.7 29.0998 68.5 29.0998C69.4 29.0998 70.1 28.6998 70.4 28.2998H70.5V28.7998C70.5 30.1998 69.7 30.9998 68.5 30.9998C67.5 30.9998 66.9 30.2998 66.6 29.6998L65.2 30.2998C65.6 31.2998 66.7 32.4998 68.5 32.4998C70.4 32.4998 72 31.3998 72 28.6998V21.9998H70.5V22.5998ZM68.7 27.5998C67.6 27.5998 66.6 26.6998 66.6 25.3998C66.6 24.0998 67.5 23.1998 68.7 23.1998C69.8 23.1998 70.7 24.0998 70.7 25.3998C70.7 26.6998 69.8 27.5998 68.7 27.5998ZM89.9 18.0998H86V28.8998H87.6V24.7998H89.9C91.7 24.7998 93.5 23.4998 93.5 21.4998C93.5 19.3998 91.7 18.0998 89.9 18.0998ZM90 23.2998H87.7V19.5998H90C91.2 19.5998 91.9 20.5998 91.9 21.3998C91.9 22.2998 91.2 23.2998 90 23.2998ZM100 21.6998C98.8 21.6998 97.6 22.1998 97.1 23.2998L98.5 23.8998C98.8 23.2998 99.4 23.0998 100 23.0998C100.8 23.0998 101.7 23.5998 101.7 24.4998V24.5998C101.4 24.3998 100.8 24.1998 100 24.1998C98.4 24.1998 96.9 24.9998 96.9 26.5998C96.9 27.9998 98.2 28.9998 99.6 28.9998C100.7 28.9998 101.3 28.4998 101.7 27.8998H101.8V28.6998H103.4V24.5998C103.3 22.7998 101.9 21.6998 100 21.6998ZM99.8 27.5998C99.3 27.5998 98.5 27.2998 98.5 26.6998C98.5 25.8998 99.4 25.4998 100.2 25.4998C100.9 25.4998 101.2 25.6998 101.7 25.8998C101.6 26.8998 100.7 27.5998 99.8 27.5998ZM109 21.9998L107.1 26.6998H107L105.1 21.9998H103.3L106.2 28.4998L104.5 32.0998H106.2L110.7 21.9998H109ZM94.4 28.7998H96V18.0998H94.4V28.7998Z" fill="white"/>
<path d="M10.4 9.5C10.1 9.8 10 10.2 10 10.7V29.7C10 30.2 10.1 30.6 10.4 30.9L10.5 31L21.3 20.3V20L10.4 9.5Z" fill="url(#paint0_linear_2_292)"/>
<path d="M24.8 23.8999L21.2 20.2999V19.9999L24.8 16.3999H24.9L29.2 18.7999C30.4 19.4999 30.4 20.5999 29.2 21.2999L24.8 23.8999Z" fill="url(#paint1_linear_2_292)"/>
<path d="M24.9 23.8998L21.2 20.2998L10.4 30.9998C10.8 31.3998 11.5 31.4998 12.2 31.0998L24.9 23.8998Z" fill="url(#paint2_linear_2_292)"/>
<path d="M24.9 16.6L12.2 9.49997C11.5 9.09997 10.8 9.09997 10.4 9.59997L21.3 20.3L24.9 16.6Z" fill="url(#paint3_linear_2_292)"/>
<path d="M42.4 11C42.4 12.7 41.2 13.8 39.4 13.8H37.6V8.19995H39.4C41.2 8.19995 42.4 9.29995 42.4 11ZM39.4 13.1C40.7 13.1 41.4 12.3 41.4 11.1C41.4 9.79995 40.7 8.99995 39.4 8.99995H38.5V13.1H39.4Z" fill="white"/>
<path d="M45.2 13.8998C43.9 13.8998 43 12.9998 43 11.5998C43 10.1998 44 9.2998 45.2 9.2998C46.5 9.2998 47.4 10.1998 47.4 11.5998C47.5 12.9998 46.5 13.8998 45.2 13.8998ZM45.2 13.0998C45.9 13.0998 46.6 12.5998 46.6 11.5998C46.6 10.5998 46 10.0998 45.3 10.0998C44.6 10.0998 44 10.5998 44 11.5998C43.9 12.5998 44.5 13.0998 45.2 13.0998Z" fill="white"/>
<path d="M47.9 9.3999H48.8L49.7 12.8999L50.6 9.3999H51.6L52.5 12.8999L53.4 9.3999H54.3L52.9 13.7999H51.9L51 10.4999L50.1 13.7999H49.1L47.9 9.3999Z" fill="white"/>
<path d="M58.1 11.2998C58.1 10.4998 57.7 10.0998 57 10.0998C56.3 10.0998 55.9 10.4998 55.9 11.2998V13.7998H55V9.3998H55.9V9.8998C56.2 9.4998 56.7 9.2998 57.2 9.2998C58.2 9.2998 59 9.8998 59 11.1998V13.7998H58.1V11.2998Z" fill="white"/>
<path d="M60.2 7.8999H61.1V13.7999H60.2V7.8999Z" fill="white"/>
<path d="M64.2 13.8998C63 13.8998 62 12.9998 62 11.5998C62 10.1998 63 9.2998 64.2 9.2998C65.5 9.2998 66.4 10.1998 66.4 11.5998C66.5 12.9998 65.5 13.8998 64.2 13.8998ZM64.2 13.0998C64.9 13.0998 65.6 12.5998 65.6 11.5998C65.6 10.5998 65 10.0998 64.3 10.0998C63.6 10.0998 63 10.5998 63 11.5998C62.9 12.5998 63.5 13.0998 64.2 13.0998Z" fill="white"/>
<path d="M69.2 9.2998C69.9 9.2998 70.5 9.6998 70.7 9.9998V9.3998H71.6V13.7998H70.7V13.0998C70.4 13.4998 69.9 13.7998 69.2 13.7998C68.1 13.7998 67.1 12.8998 67.1 11.4998C67.1 10.0998 68 9.2998 69.2 9.2998ZM69.4 10.0998C68.7 10.0998 68.1 10.5998 68.1 11.5998C68.1 12.5998 68.8 13.0998 69.4 13.0998C70.1 13.0998 70.7 12.5998 70.7 11.5998C70.7 10.5998 70.1 10.0998 69.4 10.0998Z" fill="white"/>
<path d="M74.6 9.2999C75.2 9.2999 75.8 9.5999 76.1 9.9999V7.8999H77V13.7999H76.1V13.0999C75.8 13.4999 75.3 13.7999 74.6 13.7999C73.4 13.7999 72.5 12.8999 72.5 11.4999C72.5 10.0999 73.4 9.2999 74.6 9.2999ZM74.8 10.0999C74.1 10.0999 73.5 10.5999 73.5 11.5999C73.5 12.5999 74.2 13.0999 74.8 13.0999C75.5 13.0999 76.1 12.5999 76.1 11.5999C76.1 10.5999 75.5 10.0999 74.8 10.0999Z" fill="white"/>
<path d="M82.2 13.8998C81 13.8998 80 12.9998 80 11.5998C80 10.1998 81 9.2998 82.2 9.2998C83.5 9.2998 84.4 10.1998 84.4 11.5998C84.5 12.9998 83.5 13.8998 82.2 13.8998ZM82.2 13.0998C82.9 13.0998 83.6 12.5998 83.6 11.5998C83.6 10.5998 83 10.0998 82.3 10.0998C81.6 10.0998 81 10.5998 81 11.5998C81 12.5998 81.5 13.0998 82.2 13.0998Z" fill="white"/>
<path d="M88.6 11.2998C88.6 10.4998 88.2 10.0998 87.5 10.0998C86.8 10.0998 86.4 10.4998 86.4 11.2998V13.7998H85.5V9.3998H86.4V9.8998C86.7 9.4998 87.2 9.2998 87.7 9.2998C88.7 9.2998 89.5 9.8998 89.5 11.1998V13.7998H88.6V11.2998Z" fill="white"/>
<path d="M92.8 10.0998H92.3V9.3998H92.8V8.2998H93.7V9.3998H94.8V10.0998H93.7V12.4998C93.7 12.7998 93.8 12.9998 94.2 12.9998H94.8V13.7998H94.1C93.3 13.7998 92.8 13.4998 92.8 12.5998V10.0998Z" fill="white"/>
<path d="M95.7 7.8999H96.6V9.8999C96.9 9.4999 97.4 9.2999 98 9.2999C99 9.2999 99.8 9.8999 99.8 11.1999V13.7999H98.9V11.2999C98.9 10.4999 98.5 10.0999 97.8 10.0999C97.1 10.0999 96.7 10.4999 96.7 11.2999V13.7999H95.8V7.8999H95.7Z" fill="white"/>
<path d="M102.8 13.8998C101.5 13.8998 100.6 12.9998 100.6 11.5998C100.6 10.1998 101.5 9.2998 102.8 9.2998C104.1 9.2998 104.9 10.1998 104.9 11.4998C104.9 11.6998 104.9 11.7998 104.9 11.8998H101.5C101.6 12.5998 102.1 13.0998 102.8 13.0998C103.4 13.0998 103.7 12.7998 103.8 12.4998H104.8C104.5 13.2998 103.8 13.8998 102.8 13.8998ZM101.5 11.1998H103.9C103.9 10.4998 103.3 10.0998 102.7 10.0998C102.1 10.0998 101.6 10.4998 101.5 11.1998Z" fill="white"/>
</g>
<defs>
<linearGradient id="paint0_linear_2_292" x1="20.2668" y1="29.9507" x2="5.82981" y2="15.3432" gradientUnits="userSpaceOnUse">
<stop stop-color="#00A0FF"/>
<stop offset="0.0066" stop-color="#00A1FF"/>
<stop offset="0.2601" stop-color="#00BEFF"/>
<stop offset="0.5122" stop-color="#00D2FF"/>
<stop offset="0.7604" stop-color="#00DFFF"/>
<stop offset="1" stop-color="#00E3FF"/>
</linearGradient>
<linearGradient id="paint1_linear_2_292" x1="30.7432" y1="20.2367" x2="9.68105" y2="20.2367" gradientUnits="userSpaceOnUse">
<stop stop-color="#FFE000"/>
<stop offset="0.4087" stop-color="#FFBD00"/>
<stop offset="0.7754" stop-color="#FFA500"/>
<stop offset="1" stop-color="#FF9C00"/>
</linearGradient>
<linearGradient id="paint2_linear_2_292" x1="15.6392" y1="25.44" x2="-3.93856" y2="5.63114" gradientUnits="userSpaceOnUse">
<stop stop-color="#FF3A44"/>
<stop offset="1" stop-color="#C31162"/>
</linearGradient>
<linearGradient id="paint3_linear_2_292" x1="0.383072" y1="30.1132" x2="9.125" y2="21.2682" gradientUnits="userSpaceOnUse">
<stop stop-color="#32A071"/>
<stop offset="0.0685" stop-color="#2DA771"/>
<stop offset="0.4762" stop-color="#15CF74"/>
<stop offset="0.8009" stop-color="#06E775"/>
<stop offset="1" stop-color="#00F076"/>
</linearGradient>
<clipPath id="clip0_2_292">
<rect width="119.7" height="40" fill="white"/>
</clipPath>
</defs>
</svg>
