<svg width="120" height="40" viewBox="0 0 120 40" fill="none" xmlns="http://www.w3.org/2000/svg">
<g clip-path="url(#clip0_2_322)">
<path d="M110.1 0H9.5C9.2 0 8.8 0 8.4 0C8.1 0 7.8 0 7.5 0C6.8 0 6.2 0.1 5.5 0.2C4.9 0.3 4.2 0.5 3.6 0.8C3 1.1 2.5 1.5 2 2C1.5 2.5 1.1 3 0.8 3.6C0.5 4.2 0.3 4.9 0.2 5.5C0.1 6.2 0 6.9 0 7.5C0 7.8 0 8.1 0 8.4V31.5C0 31.8 0 32.1 0 32.4C0 33.1 0.1 33.7 0.2 34.4C0.3 35.1 0.5 35.7 0.8 36.3C1.1 37 1.5 37.5 2 38C2.5 38.5 3 38.9 3.6 39.2C4.2 39.5 4.8 39.7 5.5 39.8C6.2 39.9 6.8 40 7.5 40C7.8 40 8.1 40 8.4 40C8.8 40 9.1 40 9.5 40H110.1C110.5 40 110.8 40 111.2 40C111.5 40 111.8 40 112.1 40C112.8 40 113.4 39.9 114.1 39.8C114.8 39.7 115.4 39.5 116 39.2C116.6 38.9 117.1 38.5 117.6 38C118.1 37.5 118.5 37 118.8 36.4C119.1 35.8 119.3 35.2 119.4 34.5C119.5 33.8 119.6 33.2 119.6 32.5C119.6 32.2 119.6 31.9 119.6 31.6C119.6 31.2 119.6 30.9 119.6 30.5V9.5C119.6 9.1 119.6 8.8 119.6 8.4C119.6 8.1 119.6 7.8 119.6 7.5C119.6 6.8 119.5 6.2 119.4 5.5C119.3 4.8 119.1 4.2 118.8 3.6C118.2 2.4 117.2 1.4 116 0.8C115.4 0.5 114.8 0.3 114.1 0.2C113.4 0.1 112.8 0 112.1 0C111.8 0 111.5 0 111.2 0C110.9 0 110.5 0 110.1 0Z" fill="#A6A6A6"/>
<path d="M8.39999 39.0999C8.09999 39.0999 7.79999 39.0999 7.49999 39.0999C6.89999 39.0999 6.19999 38.9999 5.59999 38.8999C4.99999 38.7999 4.49999 38.5999 3.89999 38.3999C3.39999 38.0999 2.89999 37.7999 2.49999 37.3999C2.09999 36.9999 1.69999 36.4999 1.49999 35.9999C1.19999 35.4999 1.09999 34.8999 0.999988 34.2999C0.899988 33.6999 0.799988 33.0999 0.799988 32.3999C0.799988 32.1999 0.799988 31.4999 0.799988 31.4999V8.3999C0.799988 8.3999 0.799988 7.6999 0.799988 7.4999C0.799988 6.8999 0.899988 6.1999 0.999988 5.5999C1.09999 5.0999 1.29999 4.4999 1.59999 3.9999C1.89999 3.4999 2.19999 2.9999 2.59999 2.5999C2.99999 2.1999 3.49999 1.8999 3.99999 1.5999C4.49999 1.2999 5.09999 1.1999 5.69999 1.0999C6.29999 0.999902 6.89999 0.899902 7.59999 0.899902H8.49999H111.3H112.2C112.8 0.899902 113.4 0.999902 114.1 1.0999C114.7 1.1999 115.2 1.3999 115.8 1.5999C116.8 2.0999 117.7 2.9999 118.2 3.9999C118.5 4.4999 118.6 5.0999 118.7 5.5999C118.8 6.1999 118.9 6.8999 118.9 7.4999C118.9 7.7999 118.9 8.0999 118.9 8.3999C118.9 8.7999 118.9 9.0999 118.9 9.4999V30.3999C118.9 30.7999 118.9 31.0999 118.9 31.4999C118.9 31.7999 118.9 32.0999 118.9 32.3999C118.9 32.9999 118.8 33.5999 118.7 34.2999C118.6 34.8999 118.4 35.3999 118.2 35.9999C117.9 36.4999 117.6 36.9999 117.2 37.3999C116.8 37.7999 116.3 38.1999 115.8 38.3999C115.3 38.6999 114.7 38.8999 114.1 38.8999C113.5 38.9999 112.9 39.0999 112.2 39.0999C111.9 39.0999 111.6 39.0999 111.3 39.0999H110.2H8.39999Z" fill="black"/>
<path d="M24.8 20.2999C24.8 18.5999 25.7 16.9999 27.2 16.0999C26.3 14.7999 24.8 13.9999 23.2 13.8999C21.5 13.6999 19.9 14.8999 19 14.8999C18.1 14.8999 16.8 13.8999 15.4 13.8999C13.5 13.9999 11.8 14.9999 10.9 16.5999C8.99999 19.8999 10.4 24.8999 12.3 27.5999C13.2 28.8999 14.3 30.3999 15.7 30.3999C17.1 30.2999 17.6 29.4999 19.3 29.4999C21 29.4999 21.4 30.3999 22.9 30.3999C24.4 30.3999 25.3 29.0999 26.2 27.6999C26.9 26.7999 27.4 25.6999 27.7 24.5999C25.9 23.9999 24.8 22.1999 24.8 20.2999Z" fill="white"/>
<path d="M22 12.2C22.8 11.2 23.2 9.99995 23.1 8.69995C21.9 8.79995 20.7 9.39995 19.9 10.4C19.1 11.3 18.7 12.5 18.8 13.8C20.1 13.8 21.2 13.2 22 12.2Z" fill="white"/>
<path d="M42.3 27.0999H37.6L36.5 30.4999H34.5L39 18.0999H41L45.5 30.4999H43.5L42.3 27.0999ZM38.1 25.5999H41.9L40 20.0999H39.9L38.1 25.5999Z" fill="white"/>
<path d="M55.2 26C55.2 28.8 53.7 30.6 51.4 30.6C50.2 30.7 49.1 30 48.6 29V33.5H46.7V21.5H48.5V23C49.1 22 50.2 21.4 51.4 21.4C53.6 21.3 55.2 23.2 55.2 26ZM53.2 26C53.2 24.2 52.3 23 50.8 23C49.4 23 48.4 24.2 48.4 26C48.4 27.8 49.4 29 50.8 29C52.3 29 53.2 27.8 53.2 26Z" fill="white"/>
<path d="M65.1 26C65.1 28.8 63.6 30.6 61.3 30.6C60.1 30.7 59 30 58.5 29V33.5H56.6V21.5H58.4V23C59 22 60.1 21.4 61.3 21.4C63.6 21.3 65.1 23.2 65.1 26ZM63.2 26C63.2 24.2 62.3 23 60.8 23C59.4 23 58.4 24.2 58.4 26C58.4 27.8 59.4 29 60.8 29C62.3 29 63.2 27.8 63.2 26Z" fill="white"/>
<path d="M71.7 26.9999C71.8 28.1999 73 28.9999 74.7 28.9999C76.3 28.9999 77.4 28.1999 77.4 27.0999C77.4 26.0999 76.7 25.5999 75.1 25.1999L73.5 24.7999C71.2 24.1999 70.2 23.1999 70.2 21.4999C70.2 19.3999 72.1 17.8999 74.7 17.8999C77.3 17.8999 79.1 19.3999 79.2 21.4999H77.3C77.2 20.2999 76.2 19.4999 74.7 19.4999C73.2 19.4999 72.2 20.2999 72.2 21.3999C72.2 22.2999 72.9 22.7999 74.5 23.1999L75.9 23.4999C78.4 24.0999 79.5 25.0999 79.5 26.8999C79.5 29.1999 77.6 30.6999 74.7 30.6999C71.9 30.6999 70.1 29.2999 70 26.9999H71.7Z" fill="white"/>
<path d="M83.3 19.2998V21.3998H85V22.8998H83.3V27.8998C83.3 28.6998 83.6 28.9998 84.4 28.9998C84.6 28.9998 84.8 28.9998 85 28.9998V30.4998C84.7 30.5998 84.3 30.5998 84 30.5998C82.2 30.5998 81.5 29.8998 81.5 28.1998V22.9998H80.2V21.4998H81.5V19.3998H83.3V19.2998Z" fill="white"/>
<path d="M86.1 25.9999C86.1 23.1999 87.8 21.3999 90.4 21.3999C93 21.3999 94.7 23.1999 94.7 25.9999C94.7 28.8999 93 30.5999 90.4 30.5999C87.7 30.5999 86.1 28.7999 86.1 25.9999ZM92.8 25.9999C92.8 23.9999 91.9 22.8999 90.4 22.8999C88.9 22.8999 88 23.9999 88 25.9999C88 27.9999 88.9 29.0999 90.4 29.0999C91.9 29.0999 92.8 27.8999 92.8 25.9999Z" fill="white"/>
<path d="M96.2 21.3999H98V22.9999C98.2 21.9999 99.2 21.2999 100.2 21.3999C100.4 21.3999 100.6 21.3999 100.8 21.4999V23.1999C100.5 23.0999 100.2 23.0999 100 23.0999C99 23.0999 98.1 23.8999 98.1 24.8999C98.1 24.9999 98.1 25.0999 98.1 25.1999V30.5999H96.2V21.3999Z" fill="white"/>
<path d="M109.4 27.7998C109.2 29.3998 107.5 30.5998 105.5 30.5998C102.9 30.5998 101.2 28.7998 101.2 25.9998C101.2 23.1998 102.8 21.2998 105.4 21.2998C107.9 21.2998 109.5 22.9998 109.5 25.7998V26.3998H103.1V26.4998C103 27.7998 103.9 28.8998 105.2 29.0998C105.3 29.0998 105.4 29.0998 105.5 29.0998C106.4 29.1998 107.3 28.6998 107.6 27.7998H109.4ZM103.1 25.0998H107.6C107.7 23.8998 106.7 22.8998 105.5 22.7998C105.4 22.7998 105.4 22.7998 105.3 22.7998C104.1 22.7998 103.1 23.7998 103.1 25.0998Z" fill="white"/>
<path d="M37.8 8.69985C39.3 8.59985 40.5 9.69985 40.6 11.0999C40.6 11.2999 40.6 11.3999 40.6 11.5999C40.6 13.4999 39.6 14.5999 37.8 14.5999H35.6V8.59985H37.8V8.69985ZM36.6 13.8999H37.7C38.7 13.9999 39.6 13.1999 39.7 12.0999C39.7 11.9999 39.7 11.7999 39.7 11.6999C39.8 10.6999 39.1 9.69985 38.1 9.59985C38 9.59985 37.9 9.59985 37.7 9.59985H36.6V13.8999Z" fill="white"/>
<path d="M41.7 12.4C41.6 11.2 42.4 10.2 43.6 10.1C44.8 9.99997 45.8 10.8 45.9 12C45.9 12.1 45.9 12.3 45.9 12.4C46 13.6 45.2 14.6 44 14.7C42.8 14.8 41.8 14 41.7 12.8C41.7 12.7 41.7 12.6 41.7 12.4ZM45 12.4C45 11.4 44.6 10.9 43.8 10.9C43 10.9 42.6 11.5 42.6 12.4C42.6 13.4 43 14 43.8 14C44.6 14 45 13.4 45 12.4Z" fill="white"/>
<path d="M51.6 14.7H50.7L49.8 11.4H49.7L48.8 14.7H47.9L46.7 10.2H47.6L48.4 13.6H48.5L49.4 10.2H50.3L51.2 13.6H51.3L52.1 10.2H53L51.6 14.7Z" fill="white"/>
<path d="M53.9 10.2H54.8V10.9H54.9C55.1 10.4 55.7 10.1 56.2 10.1C57 9.99998 57.7 10.6 57.8 11.5C57.8 11.6 57.8 11.7 57.8 11.8V14.7H56.9V12C56.9 11.3 56.6 10.9 55.9 10.9C55.3 10.9 54.8 11.3 54.8 11.9C54.8 12 54.8 12 54.8 12.1V14.7H53.9V10.2Z" fill="white"/>
<path d="M59.1 8.3999H60V14.6999H59.1V8.3999Z" fill="white"/>
<path d="M61.2 12.4C61.1 11.2 61.9 10.2 63.1 10.1C64.3 9.99997 65.3 10.8 65.4 12C65.4 12.1 65.4 12.3 65.4 12.4C65.5 13.6 64.7 14.6 63.5 14.7C62.3 14.8 61.3 14 61.2 12.8C61.2 12.7 61.2 12.6 61.2 12.4ZM64.6 12.4C64.6 11.4 64.2 10.9 63.4 10.9C62.6 10.9 62.2 11.5 62.2 12.4C62.2 13.4 62.6 14 63.4 14C64.1 14 64.6 13.4 64.6 12.4Z" fill="white"/>
<path d="M66.4 13.3999C66.4 12.5999 67 12.0999 68.1 12.0999L69.3 11.9999V11.5999C69.3 11.0999 69 10.8999 68.4 10.8999C67.9 10.8999 67.6 11.0999 67.5 11.3999H66.6C66.7 10.5999 67.4 10.0999 68.4 10.0999C69.5 10.0999 70.2 10.6999 70.2 11.5999V14.6999H69.3V14.0999H69.2C68.9 14.5999 68.4 14.7999 67.8 14.7999C67.1 14.8999 66.4 14.2999 66.3 13.5999C66.4 13.4999 66.4 13.4999 66.4 13.3999ZM69.3 12.9999V12.5999L68.2 12.6999C67.6 12.6999 67.3 12.9999 67.3 13.2999C67.3 13.6999 67.7 13.8999 68.1 13.8999C68.7 14.0999 69.2 13.6999 69.3 12.9999C69.3 13.0999 69.3 13.0999 69.3 12.9999Z" fill="white"/>
<path d="M71.3 12.3999C71.3 10.9999 72 10.0999 73.2 10.0999C73.8 10.0999 74.3 10.3999 74.6 10.8999H74.7V8.3999H75.6V14.6999H74.7V13.9999H74.6C74.3 14.4999 73.8 14.7999 73.2 14.7999C72.1 14.7999 71.3 13.8999 71.3 12.3999ZM72.3 12.3999C72.3 13.3999 72.8 13.8999 73.5 13.8999C74.2 13.8999 74.7 13.2999 74.7 12.3999C74.7 11.4999 74.2 10.8999 73.5 10.8999C72.7 10.8999 72.3 11.4999 72.3 12.3999Z" fill="white"/>
<path d="M79.2 12.4C79.1 11.2 79.9 10.2 81.1 10.1C82.3 9.99997 83.3 10.8 83.4 12C83.4 12.1 83.4 12.3 83.4 12.4C83.5 13.6 82.7 14.6 81.5 14.7C80.3 14.8 79.3 14 79.2 12.8C79.2 12.7 79.2 12.6 79.2 12.4ZM82.6 12.4C82.6 11.4 82.2 10.9 81.4 10.9C80.6 10.9 80.2 11.5 80.2 12.4C80.2 13.4 80.6 14 81.4 14C82.1 14 82.6 13.4 82.6 12.4Z" fill="white"/>
<path d="M84.7 10.2H85.6V10.9H85.7C85.9 10.4 86.5 10.1 87 10.1C87.8 9.99998 88.5 10.6 88.6 11.5C88.6 11.6 88.6 11.7 88.6 11.8V14.7H87.7V12C87.7 11.3 87.4 10.9 86.7 10.9C86.1 10.9 85.6 11.3 85.6 11.9C85.6 12 85.6 12 85.6 12.1V14.7H84.7V10.2Z" fill="white"/>
<path d="M93.5 9.09985V10.1999H94.5V10.9999H93.5V13.2999C93.5 13.7999 93.7 13.9999 94.1 13.9999C94.2 13.9999 94.3 13.9999 94.4 13.9999V14.6999C94.2 14.6999 94.1 14.6999 93.9 14.6999C92.9 14.6999 92.5 14.3999 92.5 13.4999V10.9999H91.8V10.2999H92.5V9.09985H93.5Z" fill="white"/>
<path d="M95.7 8.3999H96.6V10.8999H96.7C96.9 10.3999 97.5 9.9999 98.1 10.0999C98.9 10.0999 99.6 10.6999 99.7 11.4999C99.7 11.5999 99.7 11.6999 99.7 11.7999V14.6999H98.8V11.9999C98.8 11.2999 98.5 10.8999 97.8 10.8999C97.2 10.8999 96.7 11.2999 96.7 11.8999C96.7 11.9999 96.7 11.9999 96.7 12.0999V14.6999H95.8L95.7 8.3999Z" fill="white"/>
<path d="M104.8 13.5C104.6 14.3 103.7 14.9 102.8 14.8C101.7 14.8 100.7 13.9 100.7 12.8C100.7 12.7 100.7 12.6 100.7 12.5C100.5 11.4 101.3 10.3 102.5 10.2C102.6 10.2 102.7 10.2 102.8 10.2C104.1 10.2 104.8 11.1 104.8 12.5V12.8H101.6C101.5 13.5 102 14 102.7 14.1H102.8C103.2 14.2 103.7 13.9 103.9 13.6L104.8 13.5ZM101.6 12H103.9C103.9 11.4 103.5 10.9 102.9 10.8H102.8C102.2 10.9 101.6 11.4 101.6 12Z" fill="white"/>
</g>
<defs>
<clipPath id="clip0_2_322">
<rect width="119.7" height="40" fill="white"/>
</clipPath>
</defs>
</svg>
