<svg width="467" height="401" viewBox="0 0 467 401" fill="none" xmlns="http://www.w3.org/2000/svg">
<path d="M466.988 386.908C466.988 393.679 367.756 401 248.909 401C130.062 401 33.0358 394.903 33.0358 388.132C33.0358 381.361 466.988 380.137 466.988 386.908Z" fill="#D0DBFC"/>
<path d="M375.494 145.806C367.917 149.247 360.664 153.366 353.823 158.111C351.692 159.548 349.125 179.349 349.125 179.349C349.125 179.349 347.057 162.059 345.848 163.021C336.397 170.448 327.725 178.819 319.965 188.007C318.981 189.156 329.71 202.561 328.688 203.773C327.666 204.985 314.868 194.241 313.809 195.64C300.961 212.718 267.377 259.629 262.517 285.352L296.737 299.494C337.324 303.542 350.558 289.7 355.593 279.343C356.49 277.507 321.461 272.722 321.461 272.722C321.461 272.722 359.93 270.223 360.74 268.499C366.972 255.339 372.484 241.847 377.251 228.084C377.899 226.136 337.374 227.835 337.897 225.961C338.147 225.136 379.532 220.714 379.756 219.902C381.346 214.585 382.377 209.117 382.834 203.586C382.921 202.012 351.144 204.023 351.144 204.023C351.144 204.023 382.585 196.939 383.046 192.717C384.591 178.625 380.628 162.871 375.494 145.806Z" fill="#84C4E2"/>
<path d="M320.252 263.352L350.16 199.763C350.06 199.013 349.998 198.264 349.91 197.502C349.611 194.92 349.321 192.334 349.038 189.743C348.328 183.36 347.917 176.951 347.107 170.579C346.159 162.946 345.86 163.083 345.86 163.083C346.807 162.634 347.53 167.918 347.879 169.83C348.44 172.828 348.727 175.489 349.2 178.5C350.122 184.509 351.032 190.493 351.692 196.527L375.519 145.818C375.519 145.818 363.394 175.651 352.191 201.674L352.44 201.587C353.312 201.262 373.625 200.338 383.071 192.467L382.809 193.429C373.5 202.661 351.954 203.911 351.169 204.035C347.431 212.781 346.085 215.517 342.247 223.899C342.757 223.923 343.269 223.877 343.767 223.762L346.259 223.45L355.232 222.35C362.173 221.513 369.151 220.926 376.092 220.189C377.725 220.014 378.846 220.001 378.846 220.001C378.846 220.001 371.992 221.476 367.456 222.263C360.64 223.437 353.749 224.524 346.969 225.573L344.103 226.011C343.169 226.292 342.172 226.292 341.237 226.011C331.978 246.187 323.554 262.503 320.252 263.352Z" fill="#AEE4F4"/>
<path d="M360.752 268.599L317.485 271.098L317.024 273.372C317.024 273.372 350.833 270.636 360.752 268.599Z" fill="#4E9DC4"/>
<path d="M319.915 188.107L342.982 217.078L340.34 222.575C340.34 222.575 319.479 191.28 319.915 188.107Z" fill="#AEE4F4"/>
<path d="M75.5799 111.337C84.952 116.666 93.8272 122.829 102.098 129.752C104.665 131.851 100.416 176.076 100.416 176.076C100.416 176.076 110.385 135.674 111.806 137.048C123.529 148.157 134.058 160.468 143.222 173.777C143.895 174.752 135.296 187.819 135.969 188.769C152.244 213.243 175.323 232.257 178.812 268.824C178.812 268.824 181.217 291.186 178.812 289.737C176.407 288.288 115.258 337.498 115.258 337.498C115.258 337.498 107.083 324.318 97.288 307.165C96.0419 304.879 120.828 293.423 119.495 291.074C118.56 289.387 91.456 296.746 90.5089 295.034C80.6891 277.107 70.7946 257.455 66.8318 244.6C66.3333 242.976 92.6772 243.063 92.2037 241.364C91.6554 239.328 63.8036 233.331 63.8036 233.331C60.0946 217.371 58.5355 200.984 59.1679 184.609C59.2426 182.585 94.6212 189.893 94.6212 189.893C94.6212 189.893 59.9031 173.278 60.1897 170.629C62.5506 150.245 67.7304 130.29 75.5799 111.337Z" fill="#F7AB61"/>
<path d="M75.5799 111.337C84.952 116.666 93.8272 122.829 102.098 129.752C104.665 131.851 100.416 176.076 100.416 176.076C100.416 176.076 110.385 135.674 111.806 137.048C123.529 148.157 134.058 160.468 143.222 173.777C143.92 174.789 138.598 183.222 139.271 184.246C155.471 208.708 175.335 232.332 178.812 268.862C178.812 268.862 181.217 291.224 178.812 289.775C176.407 288.326 124.442 254.307 124.442 254.307L75.5799 111.337Z" fill="#FFC68D"/>
<path d="M75.5799 111.337C75.5799 111.337 111.98 228.022 115.931 239.253C116.915 242.027 65.5233 233.856 63.8535 233.331C63.9531 233.494 115.258 250.122 116.915 242.077C126.498 269.149 128.666 267.4 132.829 268.899L75.5799 111.337Z" fill="#FFE2CF"/>
<path d="M72.1903 178.55C72.614 178.55 101.637 192.592 101.637 192.592L103.02 195.765L72.1903 178.55Z" fill="#FFE2CF"/>
<path d="M106.572 152.452L99.1199 180.998L99.4813 184.284L106.572 152.452Z" fill="#FFE2CF"/>
<path d="M175.186 376.239C167.173 383.872 140.38 379.987 120.143 371.954C114.257 369.618 108.533 366.893 103.008 363.796C107.232 363.558 133.813 360.51 127.383 320.882C127.096 319.121 105.7 341.546 102.46 363.509C93.7364 358.586 84.8264 352.765 71.3803 339.984C64.2746 332.548 57.8711 324.468 52.2517 315.848C56.2269 313.911 74.1592 303.917 84.2033 277.432C84.8264 275.783 53.4854 285.89 51.5538 314.698C45.9096 305.432 41.3517 295.543 37.9706 285.227H38.1077C37.9871 284.921 37.8831 284.608 37.7962 284.29C37.7962 284.103 37.7089 283.916 37.6715 283.728C37.6715 283.891 37.6715 284.041 37.6715 284.203C35.3628 276.972 33.5638 269.587 32.2881 262.103C34.0327 260.254 39.9395 251.721 34.257 224.761C33.9081 223.1 25.023 237.254 30.6307 258.492C31.8678 266.88 33.751 275.158 36.2634 283.254C11.203 263.652 0.124611 283.516 0.124611 283.516C14.2436 289.163 34.2197 285.115 36.4628 283.803C39.8842 294.745 44.6124 305.232 50.5444 315.036C50.5444 315.036 52.4386 318.059 52.775 318.571C58.3683 327.187 64.9057 335.149 72.265 342.308C72.2709 342.328 72.2709 342.35 72.265 342.37H72.1903L72.9878 343.132C43.0799 336.524 24.3874 348.679 24.3874 348.679C46.6938 363.046 70.4207 348.267 74.3212 344.419C81.1935 350.779 88.6638 356.456 96.6275 361.372C98.055 361.993 99.3922 362.804 100.603 363.783C106.728 367.334 113.104 370.428 119.682 373.041C134.636 378.95 148.343 381.486 158.649 381.486C166.849 381.486 172.943 379.899 175.859 377.101L175.186 376.239Z" fill="#9D99E5"/>
<path d="M100.665 363.696C79.3308 354.589 58.0089 367.869 58.0089 367.869C78.9196 380.012 95.8051 369.193 100.615 364.396C101.525 363.609 100.69 363.746 100.665 363.696Z" fill="#726AE4"/>
<path d="M65.299 250.872C65.8972 249.273 40.8243 257.88 37.5719 284.153C37.7089 284.153 37.7962 284.89 37.9208 285.227C42.2824 283.279 55.9902 275.308 65.299 250.872Z" fill="#726AE4"/>
<path d="M51.7657 317.097C26.9919 296.334 10.2809 314.036 10.2809 314.036C24.6117 321.157 47.1549 319.971 52.6504 318.521C52.6504 318.521 51.8155 317.272 51.7906 317.122L51.7657 317.097Z" fill="#726AE4"/>
<path d="M97.1136 299.369C96.8394 297.67 77.7357 320.845 73.4364 342.033C73.5984 342.033 73.8352 342.22 74.0969 342.445C81.711 341.271 102.759 334.425 97.1136 299.369Z" fill="#726AE4"/>
<path d="M296.4 312.612C302.93 318.746 324.613 315.423 340.951 308.864C345.7 306.936 350.316 304.695 354.77 302.155C351.344 301.993 329.847 299.657 334.832 267.562C335.056 266.138 352.502 284.165 355.232 301.918C362.26 297.895 369.438 293.173 380.255 282.691C385.987 276.632 391.147 270.053 395.67 263.04C392.442 261.503 377.862 253.508 369.575 232.12C369.064 230.795 394.498 238.791 396.23 262.103C400.741 254.567 404.37 246.535 407.047 238.166H406.947C407.035 237.916 407.109 237.654 407.184 237.404C407.259 237.154 407.259 237.104 407.284 236.954C407.291 237.079 407.291 237.204 407.284 237.329C409.11 231.464 410.526 225.477 411.521 219.414C410.088 217.928 405.29 211.044 409.701 189.181C409.976 187.845 417.253 199.263 412.842 216.503C411.889 223.299 410.414 230.011 408.43 236.58C428.606 220.564 437.703 236.58 437.703 236.58C426.313 241.24 410.113 238.079 408.293 237.029C405.586 245.901 401.821 254.412 397.078 262.378C397.078 262.378 395.57 264.876 395.296 265.239C390.821 272.244 385.575 278.722 379.656 284.553C379.65 284.573 379.65 284.595 379.656 284.615H379.582L378.946 285.227C403.134 279.706 418.3 289.425 418.3 289.425C400.33 301.193 381.04 289.363 377.849 286.277C372.321 291.465 366.307 296.109 359.892 300.144C358.737 300.646 357.658 301.311 356.69 302.118C351.75 305.023 346.606 307.566 341.299 309.726C329.249 314.586 318.171 316.735 309.796 316.797C303.167 316.797 298.22 315.548 295.839 313.349L296.4 312.612Z" fill="#F7AB61"/>
<path d="M357.176 302.305C357.714 301.953 358.33 301.739 358.97 301.681C359.057 301.674 359.139 301.642 359.208 301.589C359.277 301.536 359.329 301.465 359.358 301.383C359.387 301.301 359.392 301.212 359.372 301.128C359.351 301.043 359.307 300.966 359.244 300.906C359.543 300.706 359.842 300.494 360.116 300.269C360.157 300.238 360.19 300.2 360.216 300.157C382.211 296.958 391.221 305.154 391.221 305.154C374.373 315.148 360.64 306.403 356.714 302.593L357.176 302.305Z" fill="#FFCDA4"/>
<path d="M384.641 210.457C384.143 209.207 404.492 215.991 407.271 237.242C407.172 237.242 407.097 237.841 406.997 238.116C403.483 236.58 392.268 230.171 384.641 210.457Z" fill="#FFCDA4"/>
<path d="M395.981 264.064C415.92 247.099 429.553 261.341 429.553 261.341C417.988 267.187 399.732 266.338 395.283 265.214C395.283 265.214 395.969 264.177 395.981 264.077V264.064Z" fill="#FFCDA4"/>
<path d="M359.194 249.91C359.406 248.536 375.021 267.188 378.61 284.315C378.485 284.315 378.286 284.465 378.086 284.653C371.88 283.741 354.795 278.331 359.194 249.91Z" fill="#FFCDA4"/>
<path d="M438.214 289.775H310.071C302.197 289.775 295.814 296.174 295.814 304.067V373.44C295.814 381.334 302.197 387.732 310.071 387.732H438.214C446.087 387.732 452.47 381.334 452.47 373.44V304.067C452.47 296.174 446.087 289.775 438.214 289.775Z" fill="#736BE5"/>
<path d="M423.11 290.175H294.967C287.094 290.175 280.711 296.574 280.711 304.467V373.84C280.711 381.734 287.094 388.132 294.967 388.132H423.11C430.984 388.132 437.366 381.734 437.366 373.84V304.467C437.366 296.574 430.984 290.175 423.11 290.175Z" fill="#9D99E5"/>
<path d="M366.821 318.171H342.72C339.004 318.25 335.309 317.584 331.853 316.213C328.397 314.842 325.249 312.793 322.593 310.186C319.937 307.579 317.827 304.466 316.386 301.031C314.946 297.596 314.204 293.907 314.204 290.181C314.204 286.455 314.946 282.766 316.386 279.331C317.827 275.895 319.937 272.783 322.593 270.176C325.249 267.569 328.397 265.52 331.853 264.149C335.309 262.777 339.004 262.112 342.72 262.19H366.821C374.124 262.345 381.075 265.362 386.185 270.594C391.296 275.827 394.158 282.858 394.158 290.181C394.158 297.504 391.296 304.535 386.185 309.767C381.075 315 374.124 318.017 366.821 318.171ZM342.72 274.059C338.47 274.059 334.394 275.751 331.388 278.764C328.383 281.777 326.694 285.864 326.694 290.125C326.694 294.386 328.383 298.472 331.388 301.485C334.394 304.498 338.47 306.191 342.72 306.191H366.821C371.071 306.191 375.147 304.498 378.153 301.485C381.158 298.472 382.847 294.386 382.847 290.125C382.847 285.864 381.158 281.777 378.153 278.764C375.147 275.751 371.071 274.059 366.821 274.059H342.72Z" fill="#9D99E5"/>
<path d="M280.711 309.701C280.727 304.422 282.827 299.363 286.551 295.629C290.275 291.896 295.321 289.791 300.587 289.775H425.079C436.045 289.775 438.039 297.683 437.366 309.701H280.711Z" fill="#BDBDFF"/>
<path d="M380.603 339.022H363.98V324.968C363.82 323.767 363.231 322.666 362.322 321.868C361.414 321.07 360.247 320.63 359.039 320.63C357.831 320.63 356.664 321.07 355.755 321.868C354.846 322.666 354.257 323.767 354.098 324.968V339.022H337.474C336.152 339.022 334.884 339.549 333.949 340.486C333.014 341.423 332.489 342.694 332.489 344.02C332.489 345.345 333.014 346.616 333.949 347.553C334.884 348.49 336.152 349.017 337.474 349.017H354.098V368.318C354.004 369.024 354.062 369.742 354.267 370.423C354.472 371.105 354.821 371.734 355.288 372.27C355.756 372.806 356.333 373.235 356.98 373.529C357.626 373.823 358.328 373.975 359.039 373.975C359.749 373.975 360.451 373.823 361.097 373.529C361.744 373.235 362.321 372.806 362.789 372.27C363.256 371.734 363.605 371.105 363.81 370.423C364.016 369.742 364.073 369.024 363.98 368.318V348.904H380.603C381.925 348.904 383.193 348.378 384.128 347.441C385.063 346.503 385.588 345.232 385.588 343.907C385.559 342.601 385.021 341.359 384.089 340.446C383.157 339.533 381.906 339.022 380.603 339.022Z" fill="white"/>
<path d="M308.961 25.8855V362.759C308.961 367.302 307.161 371.658 303.957 374.87C300.753 378.082 296.408 379.887 291.877 379.887H136.592C132.067 379.877 127.731 378.068 124.535 374.857C121.339 371.646 119.545 367.295 119.545 362.759V25.8855C119.545 21.3396 121.346 16.9799 124.552 13.7654C127.759 10.551 132.107 8.74512 136.642 8.74512H163.97V11.1563C163.97 12.3375 164.202 13.5072 164.653 14.5985C165.104 15.6898 165.765 16.6814 166.598 17.5167C167.431 18.3519 168.42 19.0145 169.509 19.4665C170.598 19.9186 171.764 20.1512 172.943 20.1512H256.323C257.501 20.1512 258.667 19.9185 259.755 19.4663C260.843 19.0141 261.831 18.3513 262.663 17.5159C263.496 16.6805 264.155 15.6888 264.605 14.5975C265.055 13.5063 265.285 12.3369 265.283 11.1563V8.74512H291.914C296.441 8.75505 300.779 10.5657 303.975 13.7794C307.171 16.9931 308.965 21.3472 308.961 25.8855Z" fill="#A8EAFC"/>
<path d="M289.571 0H138.337C131.211 0 124.377 2.83777 119.339 7.88904C114.3 12.9403 111.469 19.7913 111.469 26.9349V361.01C111.469 368.154 114.3 375.004 119.339 380.056C124.377 385.107 131.211 387.945 138.337 387.945H289.571C296.697 387.945 303.531 385.107 308.569 380.056C313.608 375.004 316.438 368.154 316.438 361.01V26.9349C316.438 19.7913 313.608 12.9403 308.569 7.88904C303.531 2.83777 296.697 0 289.571 0ZM308.961 362.759C308.961 367.302 307.161 371.658 303.957 374.87C300.753 378.082 296.408 379.887 291.877 379.887H136.592C132.067 379.877 127.731 378.068 124.535 374.857C121.339 371.646 119.545 367.295 119.545 362.759V25.8855C119.545 21.3396 121.346 16.9798 124.552 13.7654C127.759 10.5509 132.107 8.74509 136.642 8.74509H163.97V11.1562C163.97 12.3375 164.202 13.5071 164.653 14.5985C165.104 15.6898 165.765 16.6814 166.598 17.5166C167.431 18.3519 168.421 19.0145 169.509 19.4665C170.598 19.9185 171.764 20.1512 172.943 20.1512H256.323C257.501 20.1512 258.667 19.9184 259.755 19.4662C260.843 19.0141 261.831 18.3513 262.664 17.5159C263.496 16.6805 264.155 15.6888 264.605 14.5975C265.055 13.5063 265.285 12.3369 265.283 11.1562V8.74509H291.914C296.441 8.75502 300.779 10.5657 303.975 13.7794C307.171 16.9931 308.965 21.3472 308.961 25.8855V362.759Z" fill="#0065AA"/>
<path d="M427.571 65.8631C424.755 38.2536 374.996 30.6079 327.317 36.2672C279.639 41.9265 277.807 52.758 279.054 85.4146C279.465 96.1211 282.393 104.604 287.154 111.3C284.225 121.295 272.461 123.381 274.094 124.955C282.505 133.038 297.297 125.617 300.861 123.643C323.866 137.173 360.328 135.199 386.635 131.476C421.577 126.479 430.674 96.1336 427.571 65.8631Z" fill="#6F6FD8"/>
<path d="M332.377 83.3908C332.392 84.397 332.108 85.3849 331.561 86.2288C331.014 87.0727 330.229 87.7345 329.306 88.1299C328.383 88.5253 327.363 88.6365 326.377 88.4494C325.391 88.2622 324.482 87.7852 323.767 87.0789C323.052 86.3726 322.563 85.469 322.361 84.4831C322.16 83.4973 322.256 82.4736 322.636 81.5424C323.017 80.6112 323.665 79.8146 324.499 79.2539C325.333 78.6931 326.314 78.3937 327.317 78.3936C328.647 78.3902 329.925 78.9132 330.872 79.849C331.82 80.7847 332.36 82.0575 332.377 83.3908Z" fill="white"/>
<path d="M357.375 83.3907C357.39 84.397 357.106 85.3849 356.559 86.2288C356.012 87.0727 355.227 87.7345 354.304 88.1299C353.381 88.5253 352.361 88.6365 351.375 88.4494C350.389 88.2622 349.48 87.7851 348.765 87.0789C348.05 86.3726 347.561 85.469 347.359 84.4831C347.158 83.4972 347.254 82.4736 347.635 81.5424C348.015 80.6112 348.663 79.8146 349.497 79.2538C350.331 78.6931 351.312 78.3937 352.316 78.3936C353.645 78.3934 354.92 78.9175 355.867 79.8526C356.814 80.7876 357.355 82.0586 357.375 83.3907Z" fill="white"/>
<path d="M381.401 83.3908C381.416 84.397 381.132 85.3849 380.585 86.2288C380.038 87.0727 379.253 87.7345 378.33 88.1299C377.407 88.5253 376.387 88.6365 375.401 88.4494C374.415 88.2622 373.506 87.7852 372.791 87.0789C372.076 86.3726 371.587 85.469 371.386 84.4831C371.184 83.4973 371.28 82.4736 371.661 81.5424C372.041 80.6112 372.69 79.8146 373.523 79.2539C374.357 78.6931 375.338 78.3937 376.342 78.3936C377.672 78.3902 378.949 78.9132 379.896 79.849C380.844 80.7847 381.385 82.0575 381.401 83.3908Z" fill="white"/>
<path d="M197.941 158.961C198.452 158.149 217.879 167.906 239.575 155.151C261.271 142.395 248.622 276.557 248.622 276.557L246.853 346.206L244.36 379.837H190.152L179.049 274.059C179.049 274.059 190.376 170.967 197.941 158.961Z" fill="#5DCEC1"/>
<path d="M295.839 178.762C286.992 171.129 246.23 155.625 246.23 155.625L239.575 167.544C239.575 167.544 241.731 315.348 240.622 345.794V379.874H290.356L290.605 302.905C304.999 299.245 316.052 293.173 322.121 286.502C329.025 278.931 330.682 274.671 330.682 264.602C330.682 254.532 304.7 186.395 295.839 178.762Z" fill="white"/>
<path d="M193.467 289.05C193.941 288.288 194.19 287.801 194.19 287.801V156.962C194.19 156.962 153.428 172.453 144.58 180.086C135.732 187.72 109.974 258.293 109.687 268.362C108.715 308.277 143.334 358.636 143.334 358.636C144.471 358.083 145.556 357.427 146.574 356.675C145.901 365.982 144.742 379.874 144.742 379.874H198.776C198.776 379.874 198.963 338.51 198.776 336.624C198.726 335.499 195.81 309.739 193.467 289.05Z" fill="white"/>
<path d="M280.163 253.383L271.066 258.805C270.962 258.866 270.843 258.899 270.723 258.899C270.602 258.899 270.484 258.866 270.38 258.805L260.76 253.383C260.649 253.334 260.554 253.256 260.483 253.157C260.413 253.058 260.371 252.942 260.361 252.821V232.569C260.361 232.387 260.433 232.212 260.562 232.084C260.69 231.955 260.865 231.882 261.046 231.882H279.739C279.918 231.886 280.09 231.959 280.216 232.088C280.341 232.216 280.412 232.389 280.412 232.569V252.821C280.42 252.928 280.401 253.035 280.358 253.133C280.314 253.231 280.247 253.317 280.163 253.383Z" fill="#D5E1ED"/>
<path d="M280.163 253.383L271.066 258.805C270.962 258.866 270.843 258.899 270.723 258.899C270.602 258.899 270.484 258.866 270.38 258.805L260.76 253.383C260.649 253.334 260.554 253.256 260.483 253.157C260.413 253.058 260.371 252.942 260.361 252.821V236.655C260.361 236.472 260.433 236.298 260.562 236.169C260.69 236.04 260.865 235.968 261.046 235.968H279.739C279.918 235.971 280.09 236.045 280.216 236.173C280.341 236.302 280.412 236.475 280.412 236.655V252.821C280.42 252.928 280.401 253.035 280.358 253.133C280.314 253.231 280.247 253.317 280.163 253.383Z" fill="#B8DDFF"/>
<g opacity="0.5">
<path opacity="0.5" d="M240.622 347.13V144.257C240.622 144.257 242.329 147.405 248.597 153.764C256.423 161.734 263.14 173.753 263.14 173.753L248.996 171.004L267.365 189.544L253.545 270.973L243.762 272.435L249.993 292.149L240.622 347.13Z" fill="#8FA7D7"/>
</g>
<g opacity="0.5">
<path opacity="0.5" d="M187.971 153.651C180.133 161.609 173.429 173.64 173.429 173.64L187.56 170.904L169.192 189.431L198.825 343.02L195.947 144.132C195.947 144.132 194.227 147.28 187.971 153.651Z" fill="#8FA7D7"/>
</g>
<path d="M240.622 338.635L237.544 142.682C237.544 142.682 240.722 144.057 246.99 150.416C254.816 158.374 260.062 172.166 260.062 172.166L245.918 169.43L264.286 187.957L251.127 271.747L244.385 273.309L249.37 283.303L240.622 338.635Z" fill="white"/>
<path d="M198.825 336.624V142.682C198.825 142.682 195.648 144.057 189.392 150.416C181.554 158.374 176.307 172.166 176.307 172.166L190.451 169.43L172.083 187.957L198.825 336.624Z" fill="white"/>
<path d="M220.82 352.452C213.476 352.477 206.145 351.845 198.913 350.566V349.429C199.125 349.429 220.608 353.727 240.622 349.429V350.566C234.107 351.896 227.469 352.528 220.82 352.452Z" fill="#38A595"/>
<path d="M218.091 176.926C211.465 176.961 204.903 175.612 198.825 172.965V171.616C199.025 171.704 218.764 181.098 237.992 170.754V172.091C231.871 175.359 225.025 177.022 218.091 176.926Z" fill="#38A595"/>
<path opacity="0.5" d="M127.67 268.412C127.67 268.412 142.387 271.248 150.038 278.918C150.038 278.918 130.972 269.361 127.67 268.412Z" fill="#8FA7D7"/>
<path d="M166.687 334.163L169.765 337.91C169.765 337.91 163.534 353.139 156.668 361.172L151.072 353.389C157.434 348.019 162.731 341.497 166.687 334.163Z" fill="#FFCCA9"/>
<path opacity="0.5" d="M145.091 268.412C145.44 268.999 150.387 273.721 152.032 278.331L144.268 269.474L145.091 268.412Z" fill="#8FA7D7"/>
<path opacity="0.5" d="M160.743 217.203C160.743 216.491 156.232 275.92 154.312 283.653L169.192 329.303C169.192 329.303 161.341 347.13 146.624 356.675C146.624 356.675 156.045 355.276 170.874 334.737C170.874 334.737 163.459 355.975 152.979 364.945C152.979 364.945 169.453 355.151 174.289 325.417L158.749 283.653C158.749 283.653 161.453 230.421 160.743 217.203Z" fill="#8FA7D7"/>
<path opacity="0.5" d="M290.605 302.905L283.428 304.979L284.524 311.425L290.605 309.064V302.905Z" fill="#8FA7D7"/>
<path opacity="0.5" d="M288.873 258.343L283.415 213.605L285.11 259.829C266.829 266.788 247.139 275.096 247.139 275.096C247.139 275.096 257.595 272.397 270.443 268.962C283.291 265.526 307.167 252.084 307.167 252.084C302.307 253.445 295.802 255.744 288.873 258.343Z" fill="#8FA7D7"/>
<path opacity="0.1" d="M314.146 214.717C314.146 214.717 325.66 245.775 325.785 265.938C325.785 273.434 321.56 279.681 318.482 281.867C288.512 303.705 251.576 304.479 251.576 304.479C251.576 304.479 251.264 309.476 250.566 310.426C250.566 310.426 315.965 306.078 328.464 277.694C330.358 274.127 331.123 270.065 330.657 266.051C329.448 252.658 322.009 233.844 314.146 214.717Z" fill="#8FA7D7"/>
<path opacity="0.1" d="M132.006 203.311C132.455 202.062 113.314 250.872 113.538 268.412C113.887 305.254 141.016 351.715 146.611 356.675L143.371 358.636C143.371 358.636 107.357 305.004 109.725 268.362C110.198 261.116 111.071 257.918 132.006 203.311Z" fill="#8FA7D7"/>
<path d="M250.741 310.126C252.859 288.538 246.666 275.233 247.388 274.908C254.379 271.747 271.751 264.914 285.758 259.454L286.356 227.647L214.839 224.736L213.219 330.639L284.474 327.778L284.91 304.679C273.649 307.227 262.235 309.047 250.741 310.126Z" fill="#AE376D"/>
<path d="M262.318 226.673L262.355 225.386L242.952 224.262L242.915 225.886L262.318 226.673Z" fill="#A1B5BF"/>
<path d="M245.407 228.022C245.407 228.076 245.396 228.129 245.376 228.178C245.355 228.227 245.324 228.272 245.286 228.309C245.248 228.347 245.202 228.376 245.152 228.395C245.102 228.414 245.049 228.424 244.996 228.422C244.89 228.422 244.789 228.38 244.714 228.305C244.639 228.23 244.597 228.128 244.597 228.022C244.595 227.969 244.605 227.915 244.624 227.865C244.643 227.815 244.672 227.77 244.709 227.731C244.747 227.693 244.791 227.662 244.84 227.641C244.89 227.621 244.942 227.61 244.996 227.61C245.105 227.61 245.21 227.653 245.287 227.731C245.364 227.808 245.407 227.913 245.407 228.022Z" fill="#A1B5BF"/>
<path d="M260.797 228.672C260.797 228.721 260.783 228.769 260.755 228.811C260.728 228.852 260.689 228.884 260.643 228.903C260.598 228.922 260.548 228.926 260.499 228.917C260.451 228.907 260.407 228.883 260.372 228.848C260.337 228.813 260.313 228.769 260.304 228.72C260.294 228.672 260.299 228.622 260.318 228.576C260.337 228.53 260.369 228.491 260.41 228.464C260.451 228.437 260.499 228.422 260.548 228.422C260.614 228.422 260.677 228.448 260.724 228.495C260.771 228.542 260.797 228.605 260.797 228.672Z" fill="#A1B5BF"/>
<path d="M249.457 117.159C247.413 124.518 243.824 130.152 242.254 129.727C242.254 129.727 243.363 125.03 244.821 117.534C246.529 108.789 246.765 102.705 250.317 103.042C251.925 103.192 251.488 109.788 249.457 117.159Z" fill="#F0BA92"/>
<g opacity="0.6">
<path opacity="0.6" d="M246.728 114.148C244.871 121.557 243.824 130.189 242.254 129.765C242.254 129.765 243.812 123.081 245.282 115.585C246.977 106.84 246.803 103.879 250.354 104.204C250.392 104.154 248.984 105.103 246.728 114.148Z" fill="#D88D64"/>
</g>
<path d="M187.174 117.159C189.218 124.518 192.595 130.202 194.152 129.765C194.152 129.765 192.495 123.693 191.511 117.272C190.152 108.527 189.866 102.655 186.314 102.992C184.706 103.192 185.143 109.789 187.174 117.159Z" fill="#F0BA92"/>
<g opacity="0.6">
<path opacity="0.6" d="M188.806 113.311C190.663 120.72 192.545 130.214 194.152 129.777C194.152 129.777 192.495 122.156 191.024 114.648C189.33 105.903 189.604 103.892 186.04 104.229C186.052 104.229 186.563 104.304 188.806 113.311Z" fill="#D88D64"/>
</g>
<path d="M237.818 159.935C237.818 159.935 235.126 167.044 218.191 167.044C201.256 167.044 198.825 160.373 198.825 160.373V138.772H237.544L237.818 159.935Z" fill="#F0BA92"/>
<g opacity="0.6">
<path opacity="0.6" d="M237.569 144.256C234.079 151.577 220.397 157.324 218.178 157.324C215.96 157.324 204.358 152.877 198.825 144.381V133.138H237.544L237.569 144.256Z" fill="#D88D64"/>
</g>
<path d="M242.254 129.727C235.799 150.965 218.178 151.34 218.178 151.34C218.178 151.34 199.573 151.34 194.015 129.215C190.339 114.648 181.554 92.3482 192.096 75.8199C198.09 66.4627 241.644 62.7273 246.778 75.8199C251.912 88.9126 246.043 117.259 242.254 129.727Z" fill="#FFCCA9"/>
<path d="M227.649 128.94C228.372 129.54 226.166 137.223 218.203 137.31C211.437 137.373 208.047 130.414 208.658 129.365C209.418 128.116 212.11 128.953 217.929 128.953C223.749 128.953 226.877 128.29 227.649 128.94Z" fill="white"/>
<path d="M218.104 137.71C216.253 137.66 214.447 137.126 212.865 136.162C211.282 135.198 209.978 133.837 209.081 132.213C208.471 131.151 207.947 129.802 208.321 129.165C208.932 128.116 210.377 128.203 213.007 128.378C214.315 128.453 215.935 128.553 217.929 128.553C220.297 128.553 222.203 128.453 223.736 128.353C226.129 128.228 227.338 128.153 227.911 128.64C228.459 129.09 228.036 130.489 227.824 131.064C227.112 133.039 225.802 134.742 224.077 135.934C222.352 137.125 220.298 137.747 218.203 137.71H218.104ZM210.776 129.065C209.829 129.065 209.231 129.177 208.994 129.577C209.05 130.546 209.407 131.472 210.016 132.226C210.873 133.616 212.06 134.772 213.471 135.59C214.883 136.407 216.474 136.861 218.104 136.911H218.191C219.784 136.94 221.358 136.558 222.762 135.801C224.165 135.044 225.35 133.937 226.204 132.588C226.918 131.604 227.326 130.431 227.375 129.215C226.187 128.991 224.969 128.97 223.774 129.152C222.241 129.24 220.322 129.352 217.929 129.352C215.91 129.352 214.278 129.252 212.944 129.165C212.097 129.14 211.374 129.065 210.776 129.065Z" fill="#D3976E"/>
<path d="M218.216 122.444C217.46 121.964 216.893 121.236 216.611 120.384C216.329 119.533 216.35 118.609 216.671 117.771C217.18 115.698 217.456 113.573 217.493 111.438H218.291C218.246 113.65 217.953 115.85 217.418 117.996C217.163 118.669 217.148 119.41 217.375 120.093C217.602 120.776 218.058 121.359 218.664 121.744L218.216 122.444Z" fill="#D88D64"/>
<path d="M248.784 280.917L241.482 282.029C232.16 282.841 228.708 275.633 220.484 276.707C212.259 277.782 213.231 281.042 213.231 281.042C207.773 281.192 209.206 288.775 209.206 288.775C206.626 292.623 209.306 297.071 209.306 297.071C207.436 299.732 209.929 303.767 209.929 303.767C210.639 308.152 215.948 311.775 221.655 312.375H222.228H222.839H223.487C223.799 312.375 224.098 312.375 224.397 312.375H224.509L225.269 312.312C232.16 311.363 251.152 303.667 251.152 303.667C251.439 288.85 248.784 280.917 248.784 280.917Z" fill="#FFCCA9"/>
<path d="M213.231 281.042C213.231 281.042 217.954 281.979 220.509 282.154C223.83 282.485 227.133 282.986 230.403 283.653C230.403 283.653 222.727 283.016 220.434 282.866C218.739 282.804 212.508 281.117 213.231 281.042Z" fill="#D88D64"/>
<path d="M214.702 290.874C214.702 290.874 211.237 289.45 210.215 288.063C209.635 287.208 209.263 286.228 209.131 285.202C208.972 286.39 208.997 287.595 209.206 288.775L214.702 290.874Z" fill="#D88D64"/>
<path d="M214.839 299.132C213.225 298.434 211.674 297.598 210.203 296.634C209.28 295.839 208.576 294.819 208.159 293.673C208.312 294.876 208.715 296.034 209.343 297.071L214.839 299.132Z" fill="#D88D64"/>
<path d="M215.499 305.853C213.886 305.155 212.335 304.319 210.863 303.355C209.902 302.475 209.156 301.385 208.683 300.169C208.872 301.45 209.322 302.679 210.004 303.779L215.499 305.853Z" fill="#D88D64"/>
<path d="M213.917 279.056C213.917 279.056 213.082 280.992 214.589 281.255L214.826 281.592L213.231 280.992C213.202 280.639 213.248 280.284 213.366 279.95C213.484 279.616 213.672 279.312 213.917 279.056Z" fill="#D88D64"/>
<path d="M200.545 228.409C200.109 206.022 196.807 189.031 186.102 189.031C175.398 189.031 172.07 206.597 171.721 229.484V230.733C171.721 235.181 174.077 236.28 177.092 236.755C178.19 236.916 179.298 237.004 180.407 237.017C180.567 237.404 180.857 237.723 181.227 237.919C181.597 238.115 182.023 238.175 182.433 238.089C182.842 238.003 183.209 237.777 183.469 237.449C183.729 237.121 183.867 236.712 183.859 236.292V234.806C183.859 234.325 183.669 233.865 183.33 233.525C182.991 233.185 182.531 232.994 182.052 232.994C181.618 232.997 181.2 233.159 180.877 233.449C180.554 233.738 180.347 234.137 180.295 234.568C177.89 234.444 174.937 233.931 173.965 232.145C172.992 230.358 173.578 226.723 173.665 224.237C174.301 205.21 177.404 190.905 186.189 190.905C194.975 190.905 198.065 205.172 198.651 224.162C198.726 226.548 199.137 230.033 198.252 231.82C197.367 233.606 195.286 234.131 193.131 234.431C193.012 233.988 192.731 233.607 192.343 233.364C191.956 233.121 191.49 233.035 191.042 233.122C190.593 233.209 190.194 233.463 189.925 233.834C189.655 234.204 189.536 234.663 189.591 235.118L189.778 236.592C189.829 237.01 190.023 237.397 190.327 237.686C190.631 237.976 191.027 238.151 191.445 238.18C191.864 238.21 192.279 238.093 192.621 237.848C192.963 237.604 193.209 237.248 193.317 236.842C196.769 236.367 200.67 234.831 200.545 230.296V228.509C200.555 228.477 200.555 228.442 200.545 228.409Z" fill="#383F47"/>
<path d="M186.339 189.956H184.569V170.567L186.339 170.229V189.956Z" fill="#383F47"/>
<path d="M267.09 203.311C266.168 178.138 258.155 165.245 253.021 158.111C248.149 151.34 247.015 150.441 247.015 150.441C247.85 150.84 267.564 160.435 269.122 203.236L267.09 203.311Z" fill="#383F47"/>
<path d="M268.224 203.786C266.854 177.613 260.623 166.157 255.489 159.023C250.604 152.252 246.99 150.416 246.99 150.416C247.825 150.803 267.564 161.272 269.122 204.01L268.224 203.786Z" fill="#1A2026"/>
<path d="M276.885 211.006C276.888 212.719 276.383 214.394 275.436 215.82C274.488 217.245 273.141 218.357 271.563 219.014C269.985 219.671 268.248 219.844 266.572 219.512C264.896 219.179 263.356 218.356 262.147 217.145C260.938 215.935 260.114 214.392 259.78 212.713C259.446 211.033 259.616 209.291 260.27 207.709C260.923 206.126 262.03 204.773 263.45 203.821C264.871 202.869 266.541 202.361 268.249 202.361C270.537 202.361 272.732 203.272 274.351 204.893C275.971 206.514 276.882 208.712 276.885 211.006Z" fill="#BCBCBC"/>
<path d="M268.249 219.914C266.491 219.914 264.773 219.391 263.312 218.412C261.85 217.433 260.711 216.041 260.039 214.413C259.367 212.784 259.192 210.992 259.536 209.264C259.88 207.536 260.727 205.949 261.971 204.704C263.215 203.458 264.799 202.611 266.524 202.269C268.248 201.926 270.035 202.105 271.658 202.781C273.281 203.457 274.668 204.601 275.643 206.067C276.618 207.533 277.137 209.257 277.134 211.019C277.131 213.379 276.194 215.642 274.528 217.31C272.862 218.977 270.604 219.914 268.249 219.914ZM268.249 202.611C266.591 202.611 264.969 203.104 263.59 204.028C262.211 204.952 261.136 206.265 260.501 207.802C259.866 209.338 259.7 211.028 260.024 212.659C260.347 214.29 261.146 215.788 262.319 216.964C263.492 218.14 264.986 218.941 266.613 219.265C268.24 219.59 269.926 219.423 271.459 218.787C272.991 218.151 274.301 217.073 275.223 215.69C276.144 214.308 276.636 212.682 276.636 211.019C276.633 208.79 275.748 206.654 274.176 205.078C272.604 203.502 270.473 202.615 268.249 202.611Z" fill="#444444"/>
<g opacity="0.3">
<path opacity="0.3" d="M272.536 218.84L270.33 214.242L271.863 210.007L276.623 207.971C276.623 207.971 279.415 214.092 272.511 218.84H272.536Z" fill="white"/>
</g>
<path d="M272.125 211.594C272.088 212.356 271.829 213.091 271.38 213.707C270.93 214.323 270.31 214.794 269.597 215.06C268.883 215.326 268.107 215.376 267.366 215.204C266.624 215.032 265.949 214.646 265.424 214.093C264.899 213.539 264.548 212.844 264.414 212.093C264.28 211.341 264.369 210.567 264.67 209.866C264.971 209.165 265.47 208.568 266.107 208.149C266.743 207.73 267.488 207.507 268.249 207.509C269.303 207.538 270.301 207.984 271.028 208.75C271.754 209.515 272.148 210.538 272.125 211.594Z" fill="#635B53"/>
<g opacity="0.4">
<path opacity="0.4" d="M266.891 202.049L267.365 207.309L264.461 210.744L259.289 211.007C259.289 211.007 258.778 204.123 266.891 202.049Z" fill="white"/>
</g>
<path d="M271.701 211.007C271.704 211.692 271.503 212.362 271.125 212.933C270.748 213.503 270.209 213.949 269.579 214.213C268.948 214.477 268.254 214.547 267.584 214.415C266.913 214.283 266.297 213.954 265.813 213.471C265.329 212.987 264.999 212.371 264.865 211.699C264.73 211.027 264.798 210.331 265.059 209.698C265.32 209.065 265.762 208.523 266.33 208.143C266.898 207.762 267.566 207.559 268.249 207.559C269.163 207.559 270.039 207.921 270.686 208.568C271.333 209.214 271.698 210.091 271.701 211.007Z" fill="#D3D3D3"/>
<path d="M268.249 214.717C267.51 214.717 266.787 214.497 266.172 214.085C265.558 213.674 265.078 213.088 264.795 212.403C264.512 211.719 264.438 210.965 264.583 210.238C264.727 209.511 265.083 208.843 265.606 208.319C266.129 207.795 266.795 207.438 267.52 207.293C268.245 207.149 268.997 207.223 269.68 207.506C270.363 207.79 270.947 208.271 271.358 208.887C271.768 209.503 271.988 210.228 271.988 210.969C271.988 211.963 271.594 212.916 270.893 213.619C270.192 214.322 269.241 214.717 268.249 214.717ZM268.249 207.808C267.616 207.808 266.997 207.997 266.47 208.349C265.943 208.702 265.533 209.204 265.29 209.79C265.048 210.377 264.985 211.023 265.108 211.645C265.232 212.268 265.537 212.84 265.985 213.289C266.433 213.738 267.003 214.044 267.624 214.168C268.246 214.292 268.89 214.228 269.475 213.985C270.06 213.742 270.56 213.331 270.912 212.803C271.264 212.275 271.452 211.654 271.452 211.019C271.439 210.175 271.096 209.37 270.497 208.777C269.898 208.183 269.091 207.849 268.249 207.846V207.808Z" fill="#A8A6A0"/>
<path d="M269.595 211.419C269.595 211.689 269.515 211.953 269.365 212.177C269.216 212.401 269.003 212.575 268.754 212.678C268.505 212.781 268.231 212.807 267.967 212.753C267.703 212.7 267.461 212.569 267.272 212.377C267.082 212.186 266.954 211.942 266.903 211.677C266.852 211.412 266.881 211.138 266.985 210.889C267.09 210.64 267.266 210.429 267.491 210.281C267.716 210.132 267.98 210.055 268.249 210.057C268.427 210.057 268.603 210.092 268.767 210.161C268.931 210.23 269.08 210.33 269.205 210.457C269.33 210.583 269.429 210.734 269.496 210.899C269.563 211.064 269.597 211.241 269.595 211.419Z" fill="#BABABA"/>
<path d="M268.249 212.368C268.999 212.368 269.608 211.759 269.608 211.007C269.608 210.254 268.999 209.645 268.249 209.645C267.499 209.645 266.891 210.254 266.891 211.007C266.891 211.759 267.499 212.368 268.249 212.368Z" fill="white"/>
<path d="M181.815 233.731H181.441C181.132 233.731 180.881 233.983 180.881 234.294V236.667C180.881 236.978 181.132 237.229 181.441 237.229H181.815C182.125 237.229 182.376 236.978 182.376 236.667V234.294C182.376 233.983 182.125 233.731 181.815 233.731Z" fill="#AAA9A2"/>
<path d="M191.629 233.705L191.256 233.74C190.948 233.769 190.722 234.044 190.751 234.353L190.974 236.716C191.003 237.025 191.277 237.252 191.585 237.222L191.958 237.187C192.266 237.158 192.492 236.884 192.463 236.574L192.24 234.211C192.211 233.902 191.937 233.675 191.629 233.705Z" fill="#AAA9A2"/>
<g opacity="0.4">
<path opacity="0.4" d="M267.364 208.046C266.805 208.209 266.306 208.532 265.927 208.976C265.548 209.42 265.307 209.965 265.234 210.544L267.178 210.694L267.689 210.182L267.364 208.046Z" fill="white"/>
</g>
<g opacity="0.4">
<path opacity="0.4" d="M270.094 213.555C270.563 213.205 270.92 212.726 271.122 212.176C271.323 211.625 271.36 211.028 271.228 210.457L269.358 210.994L269.059 211.656L270.094 213.555Z" fill="white"/>
</g>
<path d="M190.102 114.948C190.102 114.948 186.364 100.156 185.716 92.6856C185.068 85.2148 184.27 75.1954 192.669 71.7598C201.069 68.3243 198.489 78.7809 198.489 78.7809C198.489 78.7809 191.847 83.2534 190.514 94.4596C189.791 100.556 190.102 114.948 190.102 114.948Z" fill="#2A445D"/>
<path d="M245.93 114.723C245.93 114.723 250.055 100.156 250.728 92.6856C251.401 85.2148 252.174 75.1954 243.775 71.7598C235.375 68.3243 237.955 78.7809 237.955 78.7809C237.955 78.7809 244.597 83.2534 245.93 94.4596C246.653 100.556 245.93 114.723 245.93 114.723Z" fill="#2A445D"/>
<path d="M239.064 82.3663C239.064 82.3663 228.833 84.0029 221.979 80.7672C219.973 79.8177 210.228 83.9779 205.779 83.1408C203.128 82.649 200.626 81.5527 198.465 79.9367C196.304 78.3207 194.543 76.2283 193.317 73.8211C192.819 71.7098 190.825 68.7114 196.969 64.0515C205.542 57.6052 216.122 59.1668 217.892 57.2803C218.716 56.2559 219.795 55.4671 221.02 54.9934C222.245 54.5197 223.573 54.3778 224.87 54.5819C234.055 55.5063 234.503 60.9158 239.675 61.7278C246.392 62.7773 248.66 65.4757 249.096 71.1601C249.856 81.929 239.064 82.3663 239.064 82.3663Z" fill="#2A445D"/>
<path d="M219.587 55.8438C219.587 55.8438 216.745 57.9301 209.48 66.3503C202.215 74.7706 198.489 74.2584 197.667 74.4083C197.667 74.4083 203.897 75.4952 210.514 66.7876C217.132 58.08 219.587 55.8438 219.587 55.8438Z" fill="#1F384C"/>
<path d="M230.939 82.0913C230.939 82.0913 243.002 83.5155 248.261 77.1941C248.261 77.1941 247.152 83.8029 231.213 82.1913L230.939 82.0913Z" fill="#1F384C"/>
<path d="M211.088 82.2664C196.869 84.2528 192.794 72.4969 192.856 72.7093C193.722 75.4371 195.291 77.887 197.405 79.8111C199.519 81.7351 202.103 83.0649 204.894 83.6657C206.116 84.0003 207.369 84.2096 208.633 84.2903C209.306 84.3528 209.717 84.3528 209.717 84.3528C223.313 84.4652 234.316 70.0608 234.316 70.0608C225.082 78.0063 216.895 81.1171 211.088 82.2664Z" fill="#1F384C"/>
<path d="M235.351 100.094C233.664 98.8796 231.573 98.369 229.519 98.6697C229.306 98.7122 229.087 98.6986 228.881 98.6302C228.676 98.5617 228.492 98.4409 228.347 98.2795C228.203 98.1182 228.103 97.9219 228.057 97.7099C228.011 97.4979 228.021 97.2776 228.085 97.0706C228.131 96.853 228.233 96.6514 228.382 96.4867C228.531 96.322 228.721 96.2001 228.933 96.1336C230.325 95.6248 231.834 95.5333 233.277 95.8706C234.72 96.2078 236.034 96.9591 237.058 98.0326C237.216 98.1941 237.327 98.3957 237.38 98.6157C237.432 98.8358 237.425 99.066 237.357 99.2819V99.3693C237.315 99.5801 237.219 99.7764 237.079 99.9392C236.939 100.102 236.759 100.226 236.557 100.299C236.356 100.372 236.139 100.391 235.927 100.355C235.716 100.319 235.517 100.229 235.351 100.094Z" fill="#2A445D"/>
<path d="M229.17 110.8C230.009 110.8 230.69 109.933 230.69 108.864C230.69 107.794 230.009 106.927 229.17 106.927C228.33 106.927 227.649 107.794 227.649 108.864C227.649 109.933 228.33 110.8 229.17 110.8Z" fill="#210601"/>
<path d="M207.723 106.765C207.32 106.666 206.896 106.696 206.511 106.85C206.125 107.004 205.798 107.275 205.573 107.625C205.348 107.975 205.238 108.386 205.258 108.802C205.278 109.217 205.426 109.616 205.683 109.943C205.939 110.27 206.291 110.509 206.69 110.625C207.088 110.742 207.513 110.732 207.905 110.595C208.296 110.458 208.636 110.202 208.876 109.863C209.116 109.524 209.244 109.118 209.243 108.702C209.293 108.244 209.161 107.784 208.877 107.423C208.593 107.061 208.179 106.825 207.723 106.765Z" fill="#210601"/>
<path d="M235.263 106.89C234.845 105.485 233.958 104.267 232.752 103.439C231.546 102.61 230.093 102.221 228.635 102.336C227.177 102.452 225.803 103.065 224.741 104.073C223.68 105.081 222.995 106.424 222.802 107.877C222.26 107.252 221.596 106.745 220.851 106.387C220.107 106.029 219.297 105.828 218.472 105.795C217.647 105.762 216.824 105.899 216.053 106.197C215.282 106.495 214.581 106.947 213.991 107.527C213.733 106.12 213.014 104.839 211.947 103.888C210.88 102.938 209.527 102.371 208.103 102.28C206.678 102.188 205.264 102.576 204.084 103.381C202.905 104.187 202.028 105.365 201.592 106.728C190.912 102.98 188.283 102.442 187.573 102.567C187.361 102.567 187.186 102.93 187.149 103.105L187.697 103.329C187.731 103.281 187.768 103.235 187.809 103.192C188.744 103.08 195.386 105.241 201.393 107.377C201.303 107.813 201.257 108.257 201.256 108.701C201.249 110.121 201.713 111.503 202.573 112.631C203.434 113.759 204.643 114.569 206.012 114.935C207.381 115.3 208.832 115.201 210.138 114.651C211.444 114.102 212.532 113.135 213.231 111.9C213.421 111.868 213.606 111.809 213.779 111.725C213.965 111.629 214.134 111.502 214.278 111.35C214.55 111.042 214.723 110.659 214.776 110.251C214.919 109.513 214.786 108.748 214.403 108.102C214.923 107.562 215.55 107.137 216.245 106.856C216.939 106.575 217.684 106.443 218.433 106.469C219.181 106.495 219.916 106.678 220.589 107.006C221.262 107.335 221.859 107.802 222.341 108.377C222.022 109.004 221.917 109.72 222.042 110.413C222.098 110.816 222.271 111.195 222.54 111.5C222.68 111.657 222.849 111.784 223.038 111.875C223.209 111.968 223.395 112.032 223.587 112.062C224.286 113.297 225.374 114.265 226.68 114.814C227.986 115.363 229.437 115.463 230.806 115.097C232.175 114.732 233.384 113.922 234.245 112.794C235.105 111.666 235.569 110.284 235.562 108.864C235.561 108.419 235.515 107.975 235.425 107.54C241.532 105.366 248.161 103.155 248.921 103.342L249.607 103.055C249.432 102.605 249.146 101.955 235.263 106.89ZM207.723 114.473C206.584 114.476 205.47 114.139 204.521 113.507C203.573 112.874 202.833 111.973 202.395 110.919C201.958 109.864 201.842 108.704 202.062 107.583C202.283 106.463 202.831 105.433 203.635 104.625C204.44 103.816 205.466 103.265 206.583 103.042C207.7 102.818 208.858 102.931 209.911 103.368C210.964 103.804 211.864 104.544 212.497 105.494C213.13 106.443 213.468 107.559 213.468 108.701C213.468 110.23 212.863 111.696 211.786 112.778C210.709 113.86 209.248 114.47 207.723 114.473ZM214.128 110.575C214.065 110.722 213.971 110.854 213.854 110.963L213.692 111.05C213.96 110.364 214.107 109.637 214.128 108.901C214.192 109.019 214.239 109.145 214.265 109.276C214.327 109.714 214.28 110.16 214.128 110.575ZM223.038 111.113C222.927 111.004 222.834 110.877 222.764 110.738C222.623 110.338 222.576 109.91 222.627 109.489C222.653 109.357 222.699 109.23 222.764 109.114C222.788 109.85 222.935 110.576 223.2 111.263L223.038 111.113ZM229.17 114.623C228.034 114.621 226.924 114.281 225.981 113.646C225.038 113.012 224.304 112.112 223.871 111.059C223.438 110.007 223.326 108.849 223.549 107.733C223.772 106.616 224.32 105.591 225.124 104.787C225.928 103.983 226.952 103.436 228.066 103.214C229.18 102.993 230.334 103.108 231.383 103.544C232.432 103.98 233.329 104.719 233.96 105.665C234.59 106.612 234.927 107.725 234.927 108.864C234.924 110.386 234.321 111.845 233.249 112.924C232.178 114.002 230.725 114.613 229.207 114.623H229.17Z" fill="#302420"/>
<path d="M201.542 99.9314C203.229 98.7171 205.32 98.2065 207.374 98.5072C207.585 98.5487 207.803 98.5349 208.007 98.467C208.211 98.3991 208.394 98.2795 208.538 98.1199C208.682 97.9602 208.783 97.7659 208.83 97.5558C208.877 97.3456 208.869 97.1268 208.807 96.9206C208.764 96.7007 208.662 96.4965 208.513 96.3295C208.364 96.1624 208.173 96.0386 207.96 95.9712C206.567 95.4654 205.057 95.3768 203.614 95.7162C202.171 96.0556 200.858 96.8083 199.835 97.8826C199.677 98.0442 199.566 98.2457 199.513 98.4657C199.46 98.6858 199.468 98.916 199.536 99.1319V99.1569C199.571 99.3719 199.662 99.5739 199.799 99.7429C199.936 99.9119 200.115 100.042 200.318 100.12C200.52 100.199 200.74 100.222 200.955 100.189C201.17 100.156 201.372 100.067 201.542 99.9314Z" fill="#2A445D"/>
<path d="M173.404 229.234C173.404 229.234 171.734 195.066 183.248 190.618C184.369 190.206 185.566 190.042 186.756 190.139C187.946 190.236 189.1 190.592 190.14 191.18C196.233 194.404 197.754 206.097 198.227 211.406C198.826 218.29 199.76 228.297 198.551 231.095C198.551 231.095 198.975 215.204 196.321 203.611C193.666 192.017 188.657 190.731 185.454 190.918C182.252 191.105 178.538 194.666 176.457 201.724C174.376 208.783 173.404 229.234 173.404 229.234Z" fill="#1A2026"/>
<path d="M171.746 231.757C172.032 232.653 172.534 233.464 173.208 234.118C173.882 234.772 174.707 235.249 175.609 235.505C176.403 235.75 177.244 235.793 178.058 235.63C178.872 235.466 179.632 235.101 180.27 234.568C180.147 235.401 180.185 236.249 180.382 237.067C180.382 237.067 172.02 237.904 171.746 231.757Z" fill="#1A2026"/>
<path d="M200.545 229.421C200.597 230.322 200.43 231.222 200.059 232.045C199.765 232.718 199.33 233.321 198.784 233.812C198.238 234.304 197.594 234.672 196.894 234.893C194.115 236.367 193.155 234.406 193.155 234.406C193.335 235.196 193.398 236.009 193.342 236.817C193.342 236.817 201.193 236.58 200.545 229.421Z" fill="#1A2026"/>
<path d="M184.569 170.567L186.339 170.229L186.239 171.129L184.569 171.454V170.567Z" fill="#1A2026"/>
<g opacity="0.1">
<path opacity="0.1" d="M187.772 191.093L188.108 169.855L186.339 170.205L186.002 191.193C176.419 192.842 174.5 209.932 174.164 231.658V232.907C174.164 237.342 176.532 238.454 179.535 238.928C180.634 239.083 181.74 239.17 182.85 239.191C183.01 239.578 183.3 239.897 183.67 240.093C184.039 240.289 184.466 240.349 184.875 240.263C185.284 240.177 185.651 239.95 185.911 239.622C186.172 239.294 186.31 238.885 186.302 238.466V236.98C186.29 236.532 186.113 236.105 185.804 235.782C185.496 235.458 185.078 235.262 184.633 235.23C184.187 235.199 183.747 235.336 183.396 235.613C183.046 235.89 182.811 236.288 182.737 236.73C180.345 236.617 177.379 236.093 176.419 234.319C175.46 232.545 176.033 228.897 176.108 226.411C176.743 207.384 178.812 192.929 187.61 192.929C196.408 192.929 200.545 207.346 201.131 226.323C201.218 228.709 201.629 232.207 200.745 233.981C199.86 235.755 197.766 236.305 195.61 236.592C195.479 236.164 195.194 235.799 194.81 235.569C194.426 235.339 193.971 235.259 193.532 235.346C193.093 235.433 192.702 235.681 192.435 236.04C192.167 236.399 192.042 236.845 192.084 237.292L192.258 238.754C192.307 239.172 192.499 239.56 192.803 239.851C193.106 240.143 193.501 240.319 193.92 240.35C194.338 240.381 194.755 240.265 195.098 240.021C195.44 239.778 195.688 239.422 195.797 239.016C199.249 238.529 203.162 237.005 203.038 232.47V230.683C203.032 230.658 203.032 230.633 203.038 230.608C202.601 208.358 198.277 191.305 187.772 191.093Z" fill="#0E3368"/>
<path opacity="0.1" d="M273.595 208.221C271.813 166.207 252.411 156.662 251.526 156.275C251.526 156.275 252.66 157.174 257.532 163.933C262.604 170.979 270.492 183.685 271.552 208.283C269.385 208.544 267.4 209.625 266.002 211.304C264.603 212.983 263.897 215.134 264.028 217.318C264.158 219.501 265.115 221.552 266.704 223.052C268.292 224.552 270.391 225.387 272.573 225.387C274.755 225.387 276.855 224.552 278.443 223.052C280.032 221.552 280.989 219.501 281.119 217.318C281.25 215.134 280.544 212.983 279.145 211.304C277.747 209.625 275.762 208.544 273.595 208.283V208.221Z" fill="#0E3368"/>
<path opacity="0.1" d="M284.823 304.604L284.462 327.891L219.861 330.365L219.761 338.548L288.886 335.612V303.592L284.823 304.604Z" fill="#0E3368"/>
</g>
</svg>
