<svg width="71" height="48" viewBox="0 0 71 48" fill="none" xmlns="http://www.w3.org/2000/svg">
<g clip-path="url(#clip0_2_763)">
<path d="M54.5336 33.4312C52.6722 33.1647 51.1016 33.0166 49.5892 32.6613C46.8903 32.063 44.3839 30.7794 42.3032 28.9299C40.2225 27.0804 38.6352 24.725 37.689 22.083C36.7427 19.4411 36.4682 16.5983 36.8911 13.8193C37.314 11.0403 38.4205 8.41535 40.1077 6.18875C41.657 4.32875 43.5658 2.81342 45.7154 1.73712C47.8649 0.660824 50.209 0.0466051 52.6018 -0.0672852C54.9946 -0.181175 57.3848 0.207701 59.6236 1.07513C61.8624 1.94256 63.9018 3.26997 65.6148 4.97468C67.7478 6.94793 69.3052 9.48163 70.1159 12.2974C70.9266 15.1131 70.9592 18.1018 70.2102 20.9352C67.6728 31.5925 61.4852 40.979 52.7594 47.4077C52.432 47.7264 52.0152 47.9334 51.567 48C50.9311 48.0475 50.2976 47.8811 49.7637 47.5262C49.6331 47.2595 49.5651 46.9655 49.5651 46.6675C49.5651 46.3694 49.6331 46.0755 49.7637 45.8087C50.9562 43.0845 52.3232 40.4195 53.4865 37.6656C53.9374 36.2823 54.2874 34.867 54.5336 33.4312ZM54.9699 41.6928C61.2067 36.0834 65.5855 28.6463 67.5053 20.4022C68.4069 17.1526 68.0908 13.6778 66.6182 10.6521C65.1457 7.62637 62.6218 5.26536 59.5361 4.02712C57.0493 2.77996 54.2577 2.30316 51.5073 2.65582C48.7569 3.00848 46.1686 4.1751 44.0632 6.01108C42.1229 7.51784 40.6665 9.57802 39.8793 11.9297C39.0921 14.2813 39.0096 16.8182 39.6423 19.2177C40.1938 21.9554 41.5436 24.4599 43.5154 26.404C45.4872 28.3481 47.9892 29.6414 50.6944 30.1147C52.6207 30.4021 54.5645 30.5505 56.5113 30.5589C57.9947 34.5564 56.0751 38.0506 54.9699 41.752V41.6928Z" fill="#2CAEE2"/>
<path d="M17.8579 33.4309C15.9965 33.1644 14.4259 33.0164 12.9135 32.661C10.2146 32.0628 7.70822 30.7792 5.62754 28.9296C3.54686 27.0801 1.95953 24.7248 1.01326 22.0828C0.0669937 19.4408 -0.207465 16.598 0.215428 13.819C0.638321 11.04 1.74482 8.41508 3.43196 6.18848C4.98148 4.32385 6.89197 2.80452 9.04413 1.72539C11.1963 0.646252 13.5439 0.0304888 15.9403 -0.0834426C18.3367 -0.197374 20.7304 0.192975 22.972 1.06322C25.2135 1.93347 27.2548 3.26492 28.9682 4.97442C31.0651 6.9592 32.5904 9.48888 33.3796 12.2909C34.1689 15.093 34.1923 18.0611 33.4472 20.8757C30.9218 31.5383 24.7316 40.9287 15.9965 47.3483C15.669 47.6669 15.2523 47.8739 14.804 47.9405C14.1682 47.988 13.5346 47.8216 13.0008 47.4667C12.8702 47.2 12.8022 46.906 12.8022 46.608C12.8022 46.3099 12.8702 46.016 13.0008 45.7492C14.1933 43.025 15.5602 40.36 16.7236 37.6061C17.2013 36.2445 17.5804 34.849 17.8579 33.4309ZM18.2942 41.6925C24.531 36.0831 28.9098 28.646 30.8296 20.4019C31.7312 17.1523 31.4151 13.6776 29.9426 10.6518C28.47 7.6261 25.9461 5.26509 22.8605 4.02685C20.379 2.77839 17.5915 2.30081 14.8454 2.65359C12.0992 3.00637 9.51567 4.17392 7.41655 6.01081C5.46429 7.52035 4.00202 9.59174 3.21902 11.9569C2.43603 14.322 2.36836 16.872 3.02478 19.2767C3.57814 22.0184 4.93229 24.5259 6.9097 26.4704C8.88711 28.4149 11.3955 29.7058 14.106 30.1737C16.032 30.4631 17.976 30.6116 19.9229 30.6178C21.3771 34.5562 19.4576 38.0503 18.3523 41.7517L18.2942 41.6925Z" fill="#2CAEE2"/>
</g>
<defs>
<clipPath id="clip0_2_763">
<rect width="70.5882" height="48" fill="white"/>
</clipPath>
</defs>
</svg>
