<svg width="56" height="56" viewBox="0 0 56 56" fill="none" xmlns="http://www.w3.org/2000/svg">
<path fill-rule="evenodd" clip-rule="evenodd" d="M43.4167 15.6667C43.4167 24.1813 36.5146 31.0833 28 31.0833C19.4854 31.0833 12.5833 24.1813 12.5833 15.6667C12.5833 7.15204 19.4854 0.25 28 0.25C36.5146 0.25 43.4167 7.15204 43.4167 15.6667ZM40.3333 15.6667C40.3333 18.9377 39.0339 22.0747 36.721 24.3877C34.408 26.7006 31.271 28 28 28C24.729 28 21.592 26.7006 19.279 24.3877C16.9661 22.0747 15.6667 18.9377 15.6667 15.6667C15.6667 12.3957 16.9661 9.25863 19.279 6.94568C21.592 4.63273 24.729 3.33333 28 3.33333C31.271 3.33333 34.408 4.63273 36.721 6.94568C39.0339 9.25863 40.3333 12.3957 40.3333 15.6667Z" fill="#2CAEE2"/>
<path fill-rule="evenodd" clip-rule="evenodd" d="M18.6174 35.4848L18.6344 35.5187L18.75 35.7453H36.863C37.2161 35.0762 38.0162 34.0094 38.7917 34.1867C40.5337 34.5829 42.2882 35.1348 43.9732 35.8147L44.0241 35.79L44.041 35.824L44.0534 35.8471C50.3973 38.4247 55.75 42.7938 55.75 47.3787V55.75H0.25V47.3787C0.25 41.559 8.87717 36.083 17.2083 34.1867C17.8882 34.0325 18.2921 34.8342 18.6174 35.4848ZM41.4187 38.1488C40.7573 37.9173 40.0884 37.708 39.413 37.5213L38.7254 38.8287H16.8892L16.251 37.6154L15.696 37.7819C15.6852 37.8836 15.6759 37.9977 15.6713 38.1272C15.6512 38.6591 15.6913 39.2896 15.7792 39.931C15.8694 40.5998 16.0138 41.2603 16.2109 41.9058C17.2938 42.0341 18.2966 42.541 19.0422 43.3369C19.7877 44.1328 20.228 45.1666 20.2853 46.2556C20.3427 47.3446 20.0133 48.4189 19.3554 49.2887C18.6976 50.1585 17.7535 50.7678 16.69 51.0091C15.6265 51.2504 14.5119 51.1081 13.5432 50.6074C12.5744 50.1066 11.8137 49.2797 11.3954 48.2725C10.9772 47.2654 10.9282 46.1428 11.2573 45.1031C11.5864 44.0634 12.2723 43.1734 13.1938 42.5903L13.1815 42.5472C12.9761 41.8264 12.823 41.0916 12.7236 40.3487C12.6582 39.8741 12.615 39.3967 12.5941 38.9181C10.6886 39.7321 8.91108 40.7157 7.42183 41.801C4.45875 43.9655 3.33333 45.9882 3.33333 47.3787V52.6667H52.6667V47.3787C52.6667 45.9866 51.5412 43.964 48.5782 41.8025C47.2862 40.8735 45.9101 40.0673 44.4681 39.3945C44.4054 40.23 44.2775 41.0594 44.0857 41.875H44.9583C45.2446 41.8751 45.5251 41.955 45.7685 42.1056C46.0119 42.2561 46.2086 42.4715 46.3366 42.7275L47.8783 45.8109C47.9862 46.0252 48.0417 46.261 48.0417 46.5V49.5833C48.0417 49.9922 47.8792 50.3843 47.5901 50.6735C47.301 50.9626 46.9089 51.125 46.5 51.125H43.4167V48.0417H44.9583V46.8638L44.0056 44.9583H39.7444L38.7917 46.8638V48.0417H40.3333V51.125H37.25C36.8411 51.125 36.449 50.9626 36.1599 50.6735C35.8708 50.3843 35.7083 49.9922 35.7083 49.5833V46.5C35.7083 46.261 35.7638 46.0252 35.8717 45.8109L37.4134 42.7275C37.5414 42.4715 37.7381 42.2561 37.9815 42.1056C38.2249 41.955 38.5054 41.8751 38.7917 41.875H40.8914C40.9099 41.8133 40.93 41.7517 40.9485 41.6838C41.0934 41.189 41.2229 40.5738 41.3107 39.9325C41.3971 39.2973 41.4372 38.676 41.4187 38.1488ZM17.2083 46.5C17.2083 47.3849 16.4961 48.0648 15.6667 48.0648C14.8372 48.0648 14.125 47.3865 14.125 46.5C14.125 45.6151 14.8372 44.9352 15.6667 44.9352C16.4961 44.9352 17.2083 45.6135 17.2083 46.5Z" fill="#2CAEE2"/>
</svg>
