<svg width="109" height="50" viewBox="0 0 109 50" fill="none" xmlns="http://www.w3.org/2000/svg">
<path d="M18.3334 23.3335C16.1232 23.3335 14.0036 22.4555 12.4408 20.8927C10.878 19.3299 10 17.2103 10 15.0002V8.3335C10 7.89147 10.1756 7.46754 10.4882 7.15498C10.8007 6.84242 11.2247 6.66683 11.6667 6.66683H13.3334C13.7754 6.66683 14.1993 6.49123 14.5119 6.17867C14.8244 5.86611 15 5.44219 15 5.00016C15 4.55813 14.8244 4.13421 14.5119 3.82165C14.1993 3.50909 13.7754 3.3335 13.3334 3.3335H11.6667C10.3406 3.3335 9.06883 3.86028 8.13115 4.79796C7.19347 5.73564 6.66669 7.00741 6.66669 8.3335V15.0002C6.66883 16.8831 7.12797 18.7373 8.00469 20.4036C8.8814 22.07 10.1495 23.4986 11.7 24.5668C13.1897 25.8802 14.3979 27.4818 15.2515 29.275C16.1051 31.0682 16.5865 33.0158 16.6667 35.0002C16.6667 38.0943 17.8958 41.0618 20.0838 43.2497C22.2717 45.4377 25.2392 46.6668 28.3333 46.6668C31.4275 46.6668 34.395 45.4377 36.5829 43.2497C38.7709 41.0618 40 38.0943 40 35.0002V33.1002C41.5711 32.6945 42.9403 31.7298 43.851 30.3868C44.7617 29.0438 45.1513 27.4148 44.9469 25.8052C44.7424 24.1955 43.9579 22.7156 42.7404 21.643C41.5229 20.5703 39.956 19.9785 38.3333 19.9785C36.7107 19.9785 35.1438 20.5703 33.9263 21.643C32.7088 22.7156 31.9243 24.1955 31.7198 25.8052C31.5154 27.4148 31.905 29.0438 32.8157 30.3868C33.7264 31.7298 35.0956 32.6945 36.6667 33.1002V35.0002C36.6667 37.2103 35.7887 39.3299 34.2259 40.8927C32.6631 42.4555 30.5435 43.3335 28.3333 43.3335C26.1232 43.3335 24.0036 42.4555 22.4408 40.8927C20.878 39.3299 20 37.2103 20 35.0002C20.0844 33.0133 20.571 31.0642 21.4304 29.2709C22.2899 27.4776 23.5042 25.8773 25 24.5668C26.5444 23.4949 27.806 22.0646 28.6768 20.3985C29.5476 18.7324 30.0016 16.8801 30 15.0002V8.3335C30 7.00741 29.4732 5.73564 28.5356 4.79796C27.5979 3.86028 26.3261 3.3335 25 3.3335H23.3334C22.8913 3.3335 22.4674 3.50909 22.1548 3.82165C21.8423 4.13421 21.6667 4.55813 21.6667 5.00016C21.6667 5.44219 21.8423 5.86611 22.1548 6.17867C22.4674 6.49123 22.8913 6.66683 23.3334 6.66683H25C25.442 6.66683 25.866 6.84242 26.1785 7.15498C26.4911 7.46754 26.6667 7.89147 26.6667 8.3335V15.0002C26.6667 16.0945 26.4511 17.1781 26.0323 18.1892C25.6136 19.2002 24.9997 20.1189 24.2259 20.8927C23.4521 21.6665 22.5334 22.2804 21.5224 22.6992C20.5113 23.1179 19.4277 23.3335 18.3334 23.3335ZM38.3333 30.0002C37.4493 30.0002 36.6014 29.649 35.9763 29.0238C35.3512 28.3987 35 27.5509 35 26.6668C35 25.7828 35.3512 24.9349 35.9763 24.3098C36.6014 23.6847 37.4493 23.3335 38.3333 23.3335C39.2174 23.3335 40.0653 23.6847 40.6904 24.3098C41.3155 24.9349 41.6667 25.7828 41.6667 26.6668C41.6667 27.5509 41.3155 28.3987 40.6904 29.0238C40.0653 29.649 39.2174 30.0002 38.3333 30.0002Z" fill="#2CAEE2"/>
<path d="M76.5508 16.6777H68.7109V38H63.4375V16.6777H55.7031V12.4062H76.5508V16.6777ZM86.4648 12.4062L93.0391 30.9688L99.5781 12.4062H106.504V38H101.213V31.0039L101.74 18.9277L94.832 38H91.2109L84.3203 18.9453L84.8477 31.0039V38H79.5742V12.4062H86.4648Z" fill="#2CAEE2"/>
</svg>
