<svg width="53" height="55" viewBox="0 0 53 55" fill="none" xmlns="http://www.w3.org/2000/svg">
<path d="M26.7372 3.11545e-05C27.6378 3.11545e-05 28.5247 0.0584686 29.3497 0.195969C30.1622 0.302437 30.9639 0.479566 31.7456 0.725343C32.5294 0.962531 33.296 1.25816 34.0625 1.62941C34.8085 1.98347 35.575 2.41659 36.3416 2.88753C37.6375 3.71253 38.9128 4.37941 40.2122 4.91222C42.7702 5.93602 45.4751 6.54523 48.225 6.7169C49.6206 6.81659 51.0541 6.87503 52.546 6.87503V20.625C52.546 23.2375 52.2125 25.7125 51.5456 28.0707C50.9051 30.3951 49.9948 32.6367 48.8335 34.7497C47.677 36.8598 46.3087 38.8466 44.7497 40.6794C43.1668 42.5539 41.4529 44.3137 39.621 45.9456C37.7648 47.5824 35.8097 49.1035 33.7669 50.5003C31.725 51.9166 29.6625 53.2331 27.6 54.4294L26.775 54.921L25.95 54.4294C23.8298 53.2019 21.7588 51.8912 19.7419 50.5003C17.6876 49.1192 15.7316 47.5973 13.8878 45.9456C12.057 44.3137 10.3442 42.5538 8.76252 40.6794C7.20771 38.8388 5.83328 36.8531 4.65814 34.7497C3.51666 32.6273 2.60734 30.388 1.94595 28.0707C1.27485 25.6463 0.943976 23.1405 0.962829 20.625V6.87503C2.45814 6.87503 3.89158 6.81659 5.2872 6.7169C6.66104 6.62148 8.02598 6.42501 9.37095 6.12909C10.6875 5.83347 12.0041 5.44159 13.3 4.91222C14.6448 4.36949 15.9341 3.69836 17.15 2.90816C18.6625 1.92503 20.1956 1.19972 21.7081 0.721906C23.3371 0.222546 25.0336 -0.0209772 26.7372 3.11545e-05ZM49.0878 10.2541C46.4857 10.1278 43.9079 9.69281 41.4085 8.95815C38.9223 8.21653 36.5542 7.12508 34.3753 5.71659C33.2452 4.97477 32.0178 4.39289 30.7281 3.98753C29.4399 3.59818 28.1002 3.4058 26.7544 3.41691C25.3986 3.40814 24.0491 3.60044 22.7497 3.98753C21.4581 4.37972 20.2323 4.96249 19.1128 5.71659C16.9302 7.13276 14.556 8.229 12.0625 8.9719C9.62533 9.68003 7.0747 10.1132 4.40033 10.2713V20.6422C4.40033 22.9213 4.69595 25.1007 5.2872 27.201C5.88954 29.283 6.71956 31.2923 7.7622 33.1925C8.81734 35.1125 10.061 36.9227 11.4747 38.5963C12.9081 40.2841 14.4378 41.855 16.0878 43.3469C17.7378 44.8422 19.4669 46.2172 21.275 47.4925C23.1003 48.7713 24.9291 49.9297 26.7544 50.9885C28.6234 49.9004 30.4458 48.734 32.2166 47.4925C34.0366 46.2212 35.7749 44.8366 37.421 43.3469C39.071 41.855 40.6041 40.2841 42.0375 38.5963C43.4514 36.9228 44.695 35.1126 45.75 33.1925C46.788 31.2947 47.6057 29.2845 48.1872 27.201C48.7964 25.0684 49.0997 22.8601 49.0878 20.6422V10.2541Z" fill="#2CAEE2"/>
<path fill-rule="evenodd" clip-rule="evenodd" d="M39.5522 16.1873L38.0397 14.8879L36.6441 15.0083L21.6566 32.7045L16.5519 25.417L15.1769 25.1832L13.5853 26.3211L13.3481 27.6961L19.9103 37.0667L20.6562 37.4792L22.2272 37.5754L23.0316 37.2248L39.6519 17.5795L39.5522 16.1873Z" fill="#2CAEE2"/>
</svg>
