<svg width="54" height="36" viewBox="0 0 54 36" fill="none" xmlns="http://www.w3.org/2000/svg">
<g clip-path="url(#clip0_2_760)">
<path d="M12.2818 10.9265C13.7058 11.1264 14.9073 11.2375 16.0643 11.504C18.1289 11.9527 20.0463 12.9154 21.6381 14.3025C23.2298 15.6897 24.4441 17.4562 25.168 19.4377C25.8919 21.4192 26.1018 23.5512 25.7783 25.6355C25.4548 27.7197 24.6083 29.6884 23.3177 31.3584C22.1324 32.7534 20.6722 33.8899 19.0278 34.6971C17.3834 35.5043 15.5901 35.965 13.7596 36.0504C11.9291 36.1358 10.1006 35.8442 8.38795 35.1936C6.67529 34.543 5.11515 33.5475 3.80469 32.2689C2.17297 30.789 0.981562 28.8887 0.361373 26.7769C-0.258815 24.6651 -0.283772 22.4236 0.289243 20.2985C2.23034 12.3056 6.96385 5.26571 13.6391 0.444133C13.8896 0.205123 14.2084 0.04988 14.5513 -3.91414e-05C15.0377 -0.0357103 15.5224 0.0891371 15.9308 0.355296C16.0307 0.555343 16.0827 0.775821 16.0827 0.999347C16.0827 1.22287 16.0307 1.44335 15.9308 1.64339C15.0185 3.68658 13.9728 5.68534 13.0828 7.75073C12.7379 8.78822 12.4702 9.84971 12.2818 10.9265ZM11.9481 4.73037C7.1769 8.9374 3.8271 14.5152 2.35846 20.6983C1.66875 23.1355 1.91059 25.7416 3.03707 28.0109C4.16354 30.2802 6.09434 32.0509 8.45488 32.9796C10.3573 33.915 12.4929 34.2726 14.5969 34.0081C16.701 33.7436 18.6811 32.8686 20.2917 31.4916C21.776 30.3616 22.8901 28.8164 23.4923 27.0527C24.0945 25.2889 24.1577 23.3863 23.6737 21.5866C23.2518 19.5334 22.2192 17.655 20.7107 16.1969C19.2023 14.7388 17.2883 13.7689 15.2188 13.4139C13.7452 13.1984 12.2582 13.0871 10.7688 13.0808C9.63411 10.0826 11.1026 7.46202 11.9481 4.68596L11.9481 4.73037Z" fill="#2CAEE2"/>
<path d="M40.3387 10.9266C41.7627 11.1265 42.9641 11.2375 44.1211 11.504C46.1858 11.9527 48.1032 12.9154 49.6949 14.3026C51.2866 15.6897 52.5009 17.4563 53.2248 19.4377C53.9487 21.4192 54.1587 23.5513 53.8352 25.6356C53.5117 27.7198 52.6652 29.6885 51.3745 31.3585C50.1892 32.7569 48.7276 33.8964 47.0812 34.7058C45.4348 35.5151 43.6389 35.9769 41.8057 36.0624C39.9724 36.1478 38.1412 35.8551 36.4264 35.2024C34.7116 34.5497 33.1501 33.5511 31.8393 32.269C30.2352 30.7804 29.0683 28.8832 28.4646 26.7816C27.8608 24.6801 27.8429 22.454 28.4128 20.343C30.3448 12.3461 35.0803 5.3033 41.7627 0.488627C42.0132 0.249617 42.332 0.0943822 42.6749 0.0444593C43.1613 0.00878812 43.646 0.133636 44.0544 0.399795C44.1543 0.599841 44.2063 0.820312 44.2063 1.04384C44.2063 1.26736 44.1543 1.48784 44.0544 1.68789C43.1421 3.73107 42.0964 5.72984 41.2064 7.79523C40.841 8.81648 40.5509 9.86308 40.3387 10.9266ZM40.0049 4.73045C35.2338 8.93748 31.884 14.5153 30.4153 20.6984C29.7256 23.1356 29.9674 25.7416 31.0939 28.0109C32.2204 30.2802 34.1512 32.051 36.5117 32.9797C38.4101 33.916 40.5425 34.2742 42.6433 34.0096C44.7441 33.745 46.7205 32.8694 48.3263 31.4917C49.8198 30.3596 50.9384 28.806 51.5374 27.0322C52.1364 25.2583 52.1882 23.3458 51.686 21.5423C51.2627 19.486 50.2268 17.6054 48.7141 16.147C47.2013 14.6886 45.2824 13.7205 43.2089 13.3696C41.7355 13.1525 40.2483 13.0411 38.759 13.0364C37.6465 10.0827 39.1149 7.4621 39.9604 4.68604L40.0049 4.73045Z" fill="#2CAEE2"/>
</g>
<defs>
<clipPath id="clip0_2_760">
<rect width="54" height="36" fill="white" transform="translate(54 36) rotate(-180)"/>
</clipPath>
</defs>
</svg>
